<svg id="svg" version="1.1" xmlns="http://www.w3.org/2000/svg" xmlns:xlink="http://www.w3.org/1999/xlink" width="400" height="400" viewBox="0, 0, 400,400"><g id="svgg"><path id="path0" d="M147.871 90.738 C 147.477 90.816,146.151 92.123,142.819 95.718 C 142.115 96.478,140.810 97.868,139.919 98.807 C 139.029 99.746,137.490 101.400,136.500 102.482 C 135.510 103.564,134.250 104.917,133.700 105.488 C 133.150 106.060,132.025 107.265,131.200 108.166 C 130.375 109.067,129.160 110.373,128.500 111.067 C 127.454 112.167,125.104 114.700,123.060 116.930 C 121.267 118.887,121.824 119.906,127.585 125.200 C 128.842 126.355,130.194 127.615,130.588 128.000 C 130.983 128.385,132.194 129.510,133.280 130.500 C 134.367 131.490,135.715 132.750,136.278 133.300 C 136.840 133.850,138.096 135.020,139.069 135.900 C 140.041 136.780,141.263 137.905,141.785 138.400 C 145.750 142.166,148.421 144.658,149.105 145.229 C 149.548 145.598,150.318 146.305,150.816 146.800 C 151.315 147.295,152.693 148.600,153.879 149.700 C 156.029 151.693,157.016 152.613,159.310 154.765 C 159.975 155.389,161.280 156.606,162.210 157.469 C 163.139 158.333,164.440 159.571,165.100 160.222 C 168.438 163.514,168.616 163.447,175.133 156.471 C 177.943 153.462,180.393 151.000,180.577 151.000 C 180.909 151.000,183.600 153.560,183.600 153.876 C 183.600 154.069,182.877 154.881,179.200 158.816 C 156.311 183.315,157.579 181.846,157.886 183.509 C 158.037 184.328,159.067 185.444,163.306 189.381 C 168.316 194.035,168.074 193.507,166.162 195.615 C 164.602 197.334,164.101 197.539,163.177 196.838 C 161.711 195.724,157.270 193.488,154.500 192.470 C 146.480 189.520,137.018 188.128,130.900 188.998 C 130.130 189.108,128.735 189.290,127.800 189.403 C 124.476 189.806,123.578 190.089,122.776 190.985 C 121.133 192.819,121.524 193.668,125.872 197.700 C 127.652 199.350,130.883 202.352,133.054 204.371 L 137.000 208.042 136.997 209.071 C 136.995 209.637,136.899 210.955,136.784 212.000 C 136.670 213.045,136.577 214.616,136.578 215.492 C 136.579 216.367,136.492 217.762,136.385 218.592 C 136.278 219.421,136.142 221.405,136.082 223.000 C 136.023 224.595,135.890 226.440,135.788 227.100 C 135.576 228.472,135.543 230.665,135.721 231.553 C 135.862 232.261,136.320 232.776,138.605 234.800 C 139.536 235.625,140.973 236.964,141.799 237.775 C 144.214 240.147,144.842 240.603,145.724 240.624 C 146.850 240.651,150.351 240.278,151.400 240.019 C 151.895 239.896,153.200 239.701,154.300 239.585 C 157.944 239.201,159.093 239.041,159.799 238.819 C 160.183 238.699,160.858 238.600,161.299 238.600 C 161.739 238.600,162.852 238.467,163.772 238.305 C 164.691 238.143,166.221 237.956,167.172 237.889 L 168.900 237.767 172.800 241.415 C 174.945 243.422,177.825 246.118,179.200 247.406 C 183.729 251.650,183.914 251.773,185.345 251.505 C 186.405 251.306,187.095 250.740,187.347 249.862 C 187.468 249.443,187.674 248.740,187.805 248.300 C 188.130 247.211,188.318 237.297,188.018 237.111 C 187.894 237.034,187.799 236.356,187.797 235.538 C 187.795 234.747,187.654 233.515,187.482 232.800 C 187.311 232.085,187.097 231.095,187.007 230.600 C 186.917 230.105,186.650 228.980,186.415 228.100 C 186.179 227.220,185.958 226.365,185.922 226.200 C 185.887 226.035,185.710 225.565,185.529 225.156 C 185.348 224.747,185.200 224.342,185.199 224.256 C 185.193 223.167,181.937 216.576,179.667 213.058 C 178.518 211.276,178.407 210.863,178.950 210.373 C 179.143 210.199,179.914 209.414,180.664 208.628 C 182.371 206.841,181.903 206.698,185.570 210.129 C 187.292 211.740,189.118 213.445,189.630 213.918 C 191.347 215.506,192.869 215.641,194.236 214.325 C 195.008 213.582,207.519 200.187,209.600 197.876 C 210.095 197.326,211.978 195.307,213.784 193.388 C 215.591 191.470,217.596 189.338,218.241 188.650 C 219.669 187.127,219.590 187.126,221.250 188.687 C 222.708 190.060,222.843 190.419,222.150 191.090 C 221.903 191.330,220.935 192.373,220.000 193.408 C 219.065 194.443,217.715 195.889,217.000 196.621 C 211.504 202.248,211.205 203.008,213.591 205.302 C 215.426 207.066,216.913 208.471,218.222 209.678 C 218.925 210.326,220.130 211.458,220.900 212.193 C 221.670 212.927,223.740 214.861,225.500 216.490 C 227.260 218.119,229.240 219.964,229.900 220.589 C 230.560 221.215,232.540 223.065,234.300 224.700 C 236.060 226.335,238.040 228.179,238.700 228.797 C 239.360 229.415,241.160 231.082,242.700 232.501 C 244.240 233.920,245.590 235.185,245.700 235.313 C 245.810 235.441,246.485 236.067,247.200 236.705 C 247.915 237.343,249.279 238.611,250.230 239.523 C 258.361 247.319,258.706 247.448,261.900 243.873 C 262.670 243.011,263.938 241.630,264.718 240.803 C 266.379 239.042,269.264 235.957,270.694 234.415 C 273.795 231.069,277.809 226.757,278.714 225.800 C 279.286 225.195,280.378 224.025,281.140 223.200 C 281.902 222.375,283.026 221.160,283.637 220.500 C 285.133 218.884,285.405 218.105,284.889 216.903 C 284.494 215.985,284.013 215.523,266.900 199.619 C 264.700 197.574,261.999 195.046,260.897 194.001 C 259.795 192.955,257.144 190.480,255.004 188.500 C 251.003 184.797,245.769 179.912,243.300 177.575 C 238.470 173.005,239.060 172.799,230.600 182.010 C 226.606 186.359,227.020 186.154,225.372 184.602 C 224.672 183.942,224.032 183.402,223.950 183.402 C 223.336 183.395,224.191 182.139,226.302 179.943 C 228.244 177.923,240.484 164.811,242.875 162.189 C 243.521 161.480,245.321 159.565,246.875 157.933 C 250.943 153.660,251.437 152.379,249.705 150.605 C 248.799 149.677,248.817 149.375,249.850 148.251 C 252.492 145.374,253.256 144.547,254.784 142.907 C 255.710 141.913,256.713 140.857,257.012 140.560 C 258.953 138.636,259.917 136.037,259.024 135.144 C 258.901 135.021,258.800 134.433,258.800 133.839 C 258.800 133.244,258.672 131.979,258.517 131.029 C 257.953 127.591,257.800 126.374,257.800 125.326 C 257.800 122.366,256.386 120.130,251.890 115.980 C 247.839 112.241,246.067 111.375,242.500 111.388 C 241.620 111.391,239.955 111.307,238.800 111.201 C 230.432 110.434,229.929 110.553,226.967 114.011 C 226.454 114.610,225.329 115.834,224.467 116.732 C 223.605 117.629,222.187 119.136,221.316 120.082 C 219.640 121.900,219.158 122.128,218.507 121.407 C 217.947 120.789,216.534 120.330,215.682 120.490 C 214.851 120.646,214.095 121.357,209.392 126.405 C 189.288 147.988,188.136 149.200,187.727 149.197 C 187.348 149.195,185.581 147.703,184.825 146.747 C 184.519 146.360,184.473 146.414,191.467 138.938 C 196.494 133.564,196.550 134.036,190.169 128.088 C 185.973 124.177,176.961 115.773,159.446 99.435 C 149.839 90.474,149.712 90.378,147.871 90.738 M151.427 99.933 C 152.677 101.106,154.285 102.610,155.000 103.274 C 155.715 103.938,157.021 105.161,157.903 105.991 C 160.837 108.752,164.690 112.325,165.450 112.987 C 166.466 113.873,166.713 113.484,161.850 118.671 C 159.458 121.223,155.088 125.896,152.140 129.055 C 149.192 132.215,146.717 134.797,146.640 134.794 C 146.511 134.789,145.875 134.219,143.100 131.627 C 140.861 129.535,130.660 120.053,130.130 119.571 C 129.374 118.882,129.440 118.716,131.265 116.715 C 133.222 114.571,133.228 114.571,135.388 116.650 C 136.331 117.558,137.779 118.930,138.606 119.700 C 139.434 120.470,141.255 122.171,142.654 123.480 C 145.849 126.470,145.872 126.486,147.095 126.485 C 149.331 126.483,150.757 124.497,149.926 122.544 C 149.650 121.895,149.264 121.507,144.005 116.600 C 138.026 111.021,137.499 110.515,137.448 110.310 C 137.419 110.195,138.229 109.216,139.248 108.137 L 141.100 106.173 141.700 106.731 C 142.030 107.038,144.788 109.607,147.830 112.442 C 150.871 115.276,153.599 117.686,153.893 117.797 C 155.960 118.583,158.000 117.242,158.000 115.098 C 158.000 113.890,157.598 113.426,152.161 108.365 C 145.095 101.788,145.400 102.085,145.400 101.809 C 145.400 101.544,148.770 97.800,149.009 97.800 C 149.089 97.800,150.178 98.760,151.427 99.933 M244.458 117.517 C 245.555 117.891,250.796 122.637,251.395 123.800 C 251.778 124.542,252.003 125.839,252.506 130.200 C 252.677 131.685,252.909 133.604,253.021 134.464 L 253.226 136.027 252.379 136.964 C 251.913 137.479,250.350 139.160,248.905 140.700 C 247.460 142.240,245.889 143.928,245.414 144.450 C 244.399 145.565,244.462 145.550,243.698 144.860 C 242.420 143.705,237.611 139.230,235.900 137.604 C 234.910 136.663,231.779 133.741,228.942 131.111 C 226.105 128.480,223.810 126.219,223.842 126.086 C 223.899 125.850,229.739 119.489,230.991 118.300 L 231.623 117.700 236.262 117.482 C 243.034 117.164,243.429 117.166,244.458 117.517 M174.100 121.033 C 175.750 122.591,177.595 124.318,178.200 124.871 C 178.805 125.425,180.020 126.558,180.900 127.389 C 181.781 128.220,183.693 130.012,185.150 131.371 C 186.608 132.730,187.800 133.964,187.800 134.113 C 187.800 134.500,184.386 138.028,184.079 137.958 C 183.939 137.926,182.134 136.325,180.068 134.400 C 169.878 124.905,166.988 122.135,167.057 121.928 C 167.239 121.384,170.332 118.234,170.700 118.219 C 170.953 118.208,172.202 119.242,174.100 121.033 M168.525 131.700 C 176.150 138.806,180.000 142.458,179.999 142.588 C 179.998 142.868,176.533 146.400,176.260 146.400 C 175.988 146.400,173.558 144.232,169.100 140.010 C 168.330 139.281,166.350 137.430,164.700 135.897 C 159.906 131.442,159.200 130.745,159.200 130.468 C 159.200 130.031,162.467 126.594,162.829 126.649 C 163.010 126.677,165.573 128.950,168.525 131.700 M219.420 130.350 C 220.906 131.753,223.422 134.109,225.011 135.588 C 226.600 137.066,229.025 139.324,230.400 140.605 C 236.429 146.225,241.744 151.162,242.569 151.911 C 243.655 152.896,243.794 152.606,240.600 156.019 C 239.225 157.488,237.470 159.366,236.700 160.192 C 235.930 161.018,234.665 162.370,233.890 163.197 C 233.114 164.024,231.854 165.374,231.090 166.199 C 230.325 167.023,229.652 167.743,229.594 167.799 C 229.536 167.854,228.822 168.620,228.007 169.500 C 226.609 171.011,223.278 174.582,219.700 178.407 C 218.820 179.348,216.480 181.868,214.500 184.008 C 212.520 186.147,210.045 188.798,209.000 189.900 C 207.955 191.001,205.435 193.698,203.400 195.895 C 201.365 198.091,199.063 200.565,198.284 201.394 C 197.506 202.222,195.808 204.048,194.512 205.450 C 193.216 206.853,192.120 208.000,192.078 208.000 C 191.973 208.000,187.519 203.938,185.300 201.818 C 184.310 200.872,182.375 199.067,181.000 197.805 C 179.625 196.544,178.410 195.413,178.300 195.293 C 178.016 194.982,174.919 192.084,172.109 189.499 C 170.795 188.290,168.950 186.566,168.009 185.668 C 167.069 184.770,166.053 183.841,165.750 183.604 C 164.765 182.829,164.830 182.742,172.495 174.600 C 173.977 173.026,189.933 155.904,195.980 149.400 C 198.792 146.375,201.345 143.630,201.654 143.300 C 201.962 142.970,205.339 139.349,209.157 135.254 C 212.976 131.159,216.239 127.807,216.408 127.804 C 216.578 127.802,217.933 128.947,219.420 130.350 M156.162 136.049 C 156.788 136.627,158.560 138.274,160.100 139.710 C 161.640 141.146,164.250 143.571,165.900 145.099 C 167.550 146.626,169.513 148.466,170.262 149.188 C 171.011 149.910,171.709 150.530,171.812 150.567 C 172.292 150.737,171.864 151.451,170.243 153.187 C 168.818 154.714,168.423 155.033,168.149 154.879 C 167.963 154.775,165.402 152.442,162.458 149.695 C 159.513 146.948,155.828 143.530,154.268 142.100 C 150.691 138.822,150.790 139.208,152.936 136.903 C 155.017 134.668,154.743 134.741,156.162 136.049 M242.075 184.450 C 243.641 185.908,247.336 189.350,250.285 192.100 C 253.235 194.850,255.772 197.172,255.924 197.260 C 256.483 197.584,256.154 198.145,254.249 200.118 C 253.177 201.228,250.905 203.655,249.200 205.511 C 247.495 207.367,245.605 209.388,245.000 210.003 C 244.395 210.618,243.090 212.008,242.100 213.091 C 238.890 216.606,236.914 218.600,236.644 218.600 C 236.439 218.600,232.315 214.858,227.282 210.106 C 227.162 209.993,225.385 208.334,223.332 206.421 C 221.279 204.507,219.600 202.807,219.600 202.642 C 219.600 202.219,222.828 198.900,223.240 198.900 C 223.427 198.900,225.976 201.150,228.905 203.900 C 236.460 210.994,236.596 211.084,238.388 210.159 C 241.020 208.800,240.781 206.705,237.674 203.900 C 236.821 203.130,235.217 201.645,234.108 200.600 C 233.000 199.555,231.037 197.721,229.746 196.525 C 228.456 195.329,227.400 194.281,227.400 194.196 C 227.400 193.998,230.744 190.322,231.005 190.233 C 231.194 190.169,233.147 191.922,239.100 197.503 C 244.012 202.108,243.690 201.859,244.860 201.945 C 246.657 202.078,247.999 200.819,247.998 199.000 C 247.997 197.584,248.443 198.083,240.950 191.118 C 237.898 188.281,235.400 185.834,235.400 185.682 C 235.400 185.328,238.612 181.847,238.963 181.820 C 239.108 181.809,240.508 182.993,242.075 184.450 M141.200 195.116 C 149.807 196.258,156.070 198.773,163.400 204.028 C 174.892 212.267,182.842 228.129,182.212 241.565 C 182.182 242.224,179.660 240.011,169.601 230.500 C 168.438 229.400,166.681 227.780,165.697 226.900 C 164.713 226.020,163.454 224.850,162.900 224.300 C 161.719 223.128,154.599 216.494,153.000 215.076 C 152.395 214.539,151.585 213.792,151.200 213.416 C 150.815 213.040,149.825 212.100,149.000 211.327 C 148.175 210.554,146.240 208.741,144.700 207.298 C 143.160 205.855,140.599 203.465,139.010 201.987 C 130.805 194.359,131.188 194.856,133.437 194.747 C 135.574 194.644,138.802 194.797,141.200 195.116 M261.574 202.627 C 261.973 202.972,263.605 204.479,265.200 205.977 C 266.795 207.474,268.685 209.245,269.400 209.912 C 276.424 216.466,277.708 217.698,277.764 217.930 C 277.828 218.193,274.736 221.705,274.291 221.876 C 274.167 221.923,273.803 221.721,273.483 221.425 C 273.162 221.130,272.270 220.311,271.500 219.607 C 270.730 218.902,269.329 217.600,268.387 216.713 C 267.446 215.826,264.498 213.077,261.837 210.604 C 259.177 208.131,257.000 206.010,257.000 205.890 C 257.000 205.614,260.395 202.000,260.654 202.000 C 260.760 202.000,261.174 202.282,261.574 202.627 M261.317 218.208 C 265.928 222.503,269.786 226.142,269.890 226.295 C 270.066 226.552,267.301 229.742,266.450 230.266 C 266.139 230.456,265.910 230.253,256.100 221.098 C 252.360 217.607,249.271 214.578,249.235 214.366 C 249.175 214.014,252.427 210.400,252.804 210.400 C 252.876 210.400,256.707 213.914,261.317 218.208 M146.342 216.918 C 147.852 218.338,149.762 220.130,150.588 220.900 C 151.414 221.670,152.813 222.975,153.696 223.800 C 154.580 224.625,156.902 226.783,158.857 228.595 C 160.941 230.526,162.388 232.015,162.354 232.192 C 162.289 232.529,161.833 232.632,158.300 233.108 C 155.644 233.466,152.442 233.905,150.300 234.206 C 149.530 234.314,148.450 234.452,147.900 234.513 L 146.900 234.625 144.237 232.062 L 141.575 229.500 141.795 225.700 C 142.127 219.986,142.579 214.196,142.710 213.984 C 142.878 213.712,143.274 214.031,146.342 216.918 M246.611 220.347 C 247.430 221.087,249.046 222.595,250.203 223.697 C 251.985 225.395,257.060 230.114,260.950 233.690 C 261.528 234.220,262.000 234.790,262.000 234.956 C 262.000 235.289,258.858 238.662,258.450 238.765 C 258.084 238.858,257.712 238.530,249.997 231.300 C 244.284 225.947,242.832 224.599,242.245 224.107 C 241.057 223.108,241.048 222.900,242.142 221.735 C 242.676 221.166,243.418 220.318,243.790 219.850 C 244.681 218.732,244.860 218.763,246.611 220.347 M130.529 235.606 C 128.948 236.079,128.060 237.923,128.731 239.338 C 129.115 240.146,137.120 247.703,137.911 248.004 C 138.973 248.408,139.876 248.245,140.759 247.488 C 142.557 245.949,142.325 244.538,139.898 242.262 C 139.100 241.513,137.349 239.865,136.008 238.600 C 132.659 235.442,132.098 235.135,130.529 235.606 M120.632 245.546 L 119.964 245.628 120.105 246.864 C 120.775 252.727,126.766 257.785,133.058 257.798 L 134.217 257.800 134.081 256.250 C 134.007 255.398,133.933 254.683,133.918 254.661 C 133.902 254.640,133.081 254.523,132.094 254.401 C 127.968 253.894,123.606 250.273,123.599 247.349 C 123.594 245.493,123.169 245.235,120.632 245.546 M224.941 277.926 C 224.863 278.003,224.800 279.628,224.800 281.537 L 224.800 285.008 225.605 284.597 C 226.855 283.960,241.855 284.066,242.736 284.718 C 243.535 285.311,244.200 286.361,244.200 287.030 L 244.200 287.600 247.426 287.600 L 250.653 287.600 250.556 286.099 C 250.361 283.054,248.310 280.168,245.274 278.667 L 243.722 277.900 234.402 277.843 C 229.275 277.811,225.018 277.849,224.941 277.926 M261.593 291.650 C 257.718 299.268,253.698 307.143,252.658 309.150 L 250.768 312.800 254.434 312.800 L 258.100 312.799 263.400 302.403 C 266.315 296.686,268.745 292.008,268.800 292.008 C 268.855 292.009,271.282 296.687,274.193 302.405 L 279.486 312.800 283.160 312.800 L 286.834 312.800 285.345 309.950 C 284.526 308.382,280.502 300.507,276.402 292.450 C 272.303 284.393,268.879 277.800,268.793 277.800 C 268.707 277.800,265.467 284.032,261.593 291.650 M279.600 281.000 L 279.600 284.200 286.800 284.200 L 294.000 284.200 294.000 298.500 L 294.000 312.800 297.200 312.800 L 300.400 312.800 300.400 298.500 L 300.400 284.200 307.500 284.200 L 314.600 284.200 314.600 281.000 L 314.600 277.800 297.100 277.800 L 279.600 277.800 279.600 281.000 M224.845 293.342 L 224.900 296.900 232.700 297.001 C 241.323 297.112,241.359 297.117,242.774 298.460 C 245.268 300.826,244.278 305.194,241.028 306.168 C 240.054 306.460,228.222 306.487,227.187 306.200 C 226.795 306.091,226.095 305.678,225.633 305.281 L 224.791 304.561 224.846 308.424 L 224.900 312.287 225.700 312.528 C 227.217 312.985,241.281 312.886,242.829 312.407 C 253.145 309.220,253.261 294.791,243.000 291.172 C 241.752 290.732,241.381 290.709,233.791 290.607 C 226.639 290.510,225.829 290.466,225.336 290.142 L 224.791 289.785 224.845 293.342 " stroke="none" fill="#2d61a0" fill-rule="evenodd"></path><path id="path1" d="M0.000 200.000 L 0.000 400.000 200.000 400.000 L 400.000 400.000 400.000 200.000 L 400.000 0.000 200.000 0.000 L 0.000 0.000 0.000 200.000 M149.833 90.586 C 150.316 90.801,151.723 91.931,153.008 93.136 C 154.278 94.326,157.293 97.140,159.708 99.390 C 163.536 102.954,166.692 105.898,178.800 117.200 C 188.118 125.898,193.170 130.591,193.839 131.171 C 195.204 132.354,195.692 133.806,195.141 135.039 C 194.911 135.553,190.347 140.585,186.501 144.564 L 184.700 146.428 186.087 147.723 C 188.029 149.537,185.626 151.665,204.297 131.593 C 215.872 119.150,214.648 120.307,216.233 120.307 C 217.212 120.307,217.477 120.395,218.172 120.953 C 218.950 121.578,219.696 121.789,219.833 121.422 C 219.870 121.325,221.025 120.045,222.400 118.579 C 223.775 117.113,225.494 115.280,226.220 114.507 C 226.946 113.733,227.885 112.711,228.306 112.236 C 229.746 110.612,229.917 110.576,235.034 110.827 C 237.491 110.948,240.490 111.077,241.700 111.114 C 246.987 111.276,248.024 111.850,254.710 118.328 C 256.509 120.071,258.001 123.172,257.999 125.161 C 257.997 126.161,258.251 128.227,258.716 131.000 C 258.873 131.935,259.001 133.081,259.000 133.546 C 259.000 134.012,259.107 135.016,259.237 135.777 C 259.625 138.036,259.633 138.023,254.102 143.971 C 248.763 149.711,248.927 149.465,249.822 150.423 C 250.790 151.459,251.066 152.675,250.607 153.880 C 250.502 154.159,247.374 157.648,243.657 161.634 C 239.941 165.620,236.180 169.658,235.300 170.609 C 234.420 171.559,231.540 174.649,228.900 177.475 C 226.260 180.302,224.075 182.726,224.044 182.861 C 224.013 182.997,224.633 183.685,225.421 184.391 L 226.853 185.673 228.277 184.169 C 229.060 183.342,230.240 182.085,230.900 181.376 C 238.783 172.906,238.607 172.989,242.051 176.153 C 244.232 178.156,259.736 192.609,265.803 198.293 C 268.390 200.717,273.025 205.038,276.103 207.895 C 287.078 218.083,286.766 217.509,283.328 221.180 C 282.432 222.135,281.124 223.543,280.420 224.308 C 279.715 225.074,278.455 226.422,277.620 227.304 C 276.784 228.186,274.975 230.120,273.600 231.601 C 270.823 234.594,265.946 239.825,262.496 243.513 C 259.166 247.070,258.175 247.221,255.400 244.592 C 255.015 244.227,254.160 243.436,253.500 242.834 C 252.840 242.232,251.625 241.095,250.800 240.308 C 249.975 239.520,248.670 238.301,247.900 237.598 C 246.548 236.365,242.831 232.911,239.505 229.797 C 238.622 228.971,237.225 227.671,236.400 226.908 C 235.575 226.145,234.225 224.882,233.400 224.100 C 232.575 223.319,230.505 221.384,228.800 219.801 C 225.149 216.410,223.883 215.229,221.711 213.185 C 220.825 212.352,218.896 210.552,217.424 209.185 C 212.971 205.050,212.845 204.924,212.416 204.200 C 211.565 202.762,212.002 201.549,214.200 199.255 C 216.014 197.363,220.441 192.645,221.572 191.400 C 222.021 190.905,222.392 190.412,222.395 190.305 C 222.402 190.036,219.964 187.600,219.686 187.600 C 219.494 187.600,215.111 192.211,207.700 200.209 C 194.204 214.773,193.993 214.984,192.509 215.422 C 191.768 215.640,190.650 215.131,189.499 214.051 C 187.162 211.861,183.041 208.050,182.643 207.713 L 182.186 207.326 180.497 209.113 C 178.480 211.247,178.526 210.836,180.038 213.180 C 181.218 215.012,183.341 218.995,184.044 220.700 C 185.468 224.151,186.818 228.315,187.190 230.400 C 187.278 230.895,187.488 231.975,187.657 232.800 C 188.141 235.165,188.297 237.550,188.291 242.500 C 188.283 249.156,187.911 250.567,185.905 251.567 C 184.259 252.388,184.240 252.375,176.233 244.903 C 167.729 236.967,168.759 237.762,167.291 237.991 C 166.636 238.094,165.110 238.316,163.900 238.486 C 162.690 238.656,161.070 238.896,160.300 239.020 C 159.530 239.143,158.270 239.313,157.500 239.398 C 155.439 239.624,152.852 239.976,151.600 240.201 C 150.564 240.387,147.175 240.802,146.300 240.849 C 144.928 240.924,144.469 240.626,141.194 237.526 C 140.365 236.742,138.863 235.347,137.856 234.428 C 135.311 232.103,135.001 231.086,135.598 227.000 C 135.702 226.285,135.838 224.395,135.901 222.800 C 135.963 221.205,136.057 219.699,136.110 219.453 C 136.163 219.207,136.295 217.362,136.404 215.353 C 136.514 213.344,136.659 210.924,136.728 209.977 C 136.839 208.446,136.810 208.211,136.471 207.877 C 136.260 207.669,132.996 204.620,129.217 201.100 C 121.032 193.477,120.900 193.285,122.344 191.064 C 123.916 188.647,139.703 187.817,146.500 189.794 C 146.830 189.890,147.865 190.162,148.800 190.397 C 152.933 191.439,157.990 193.524,161.834 195.771 C 162.991 196.447,164.066 197.000,164.224 197.000 C 164.477 197.000,166.728 194.833,167.362 193.980 C 167.565 193.706,166.992 193.090,163.457 189.780 C 155.707 182.522,155.750 183.647,162.930 175.968 C 165.444 173.280,169.210 169.242,171.300 166.995 C 173.390 164.748,176.976 160.903,179.270 158.451 C 181.658 155.897,183.397 153.880,183.339 153.730 C 183.214 153.403,180.721 151.200,180.477 151.200 C 180.378 151.200,179.405 152.167,178.313 153.350 C 169.824 162.546,170.256 162.116,169.238 162.390 C 167.980 162.728,167.196 162.363,165.206 160.513 C 164.268 159.640,162.330 157.840,160.900 156.513 C 159.470 155.186,157.625 153.463,156.800 152.684 C 155.975 151.904,153.275 149.390,150.800 147.096 C 145.969 142.618,142.007 138.925,139.108 136.200 C 138.114 135.265,136.090 133.375,134.611 132.000 C 133.133 130.625,131.246 128.870,130.420 128.100 C 129.593 127.330,128.284 126.115,127.512 125.400 C 122.268 120.547,121.832 119.984,122.100 118.398 C 122.255 117.484,122.593 117.075,127.718 111.611 C 128.497 110.780,129.757 109.430,130.518 108.610 C 131.278 107.791,132.582 106.396,133.415 105.510 C 134.249 104.625,135.474 103.315,136.137 102.600 C 146.665 91.259,146.978 90.938,147.996 90.466 C 148.701 90.139,148.853 90.149,149.833 90.586 M147.326 99.728 C 146.382 100.703,145.607 101.603,145.604 101.729 C 145.602 101.855,148.091 104.285,151.135 107.129 C 157.989 113.531,157.593 113.135,157.924 113.927 C 158.946 116.373,156.942 118.728,154.325 118.156 C 153.431 117.961,153.459 117.985,146.519 111.500 C 143.694 108.860,141.256 106.700,141.100 106.700 C 140.864 106.700,137.600 110.044,137.600 110.286 C 137.600 110.364,140.831 113.414,146.088 118.300 C 149.813 121.762,149.798 121.746,150.112 122.499 C 150.899 124.381,149.658 126.435,147.561 126.723 C 146.252 126.902,145.572 126.502,142.891 123.973 C 140.696 121.902,137.086 118.540,134.479 116.140 C 133.149 114.915,133.144 114.917,131.342 116.885 C 129.492 118.907,129.513 118.671,131.050 120.109 C 131.738 120.752,133.067 122.003,134.004 122.889 C 138.194 126.849,146.260 134.313,146.491 134.445 C 146.722 134.576,149.723 131.494,155.395 125.300 C 156.201 124.420,157.546 122.980,158.383 122.100 C 162.544 117.729,165.900 114.037,165.900 113.831 C 165.900 113.695,162.640 110.617,155.500 104.012 C 153.190 101.875,150.792 99.639,150.172 99.042 L 149.044 97.956 147.326 99.728 M238.700 117.625 C 237.490 117.693,235.495 117.761,234.266 117.775 C 233.038 117.789,231.897 117.852,231.732 117.915 C 231.324 118.072,223.959 125.985,224.038 126.183 C 224.095 126.328,229.197 131.153,232.514 134.201 C 233.292 134.915,235.812 137.259,238.114 139.409 C 240.416 141.560,242.766 143.749,243.336 144.274 L 244.373 145.229 244.937 144.665 C 245.247 144.354,246.712 142.795,248.193 141.200 C 249.673 139.605,251.360 137.790,251.941 137.166 C 252.945 136.089,252.992 135.990,252.896 135.166 C 251.491 123.082,251.819 124.093,248.200 120.714 C 244.533 117.290,244.544 117.294,238.700 117.625 M168.818 120.129 C 166.846 122.237,166.744 121.714,169.650 124.402 C 170.998 125.648,172.871 127.395,173.814 128.284 C 178.257 132.473,183.156 137.010,183.682 137.423 L 184.264 137.880 185.926 136.090 C 186.840 135.105,187.591 134.208,187.594 134.095 C 187.597 133.982,186.053 132.452,184.161 130.695 C 182.270 128.938,178.530 125.453,175.851 122.950 C 173.171 120.447,170.857 118.400,170.708 118.400 C 170.558 118.400,169.708 119.178,168.818 120.129 M161.000 128.521 C 159.103 130.679,159.131 130.478,160.547 131.786 C 164.025 135.000,167.383 138.127,171.461 141.950 C 173.954 144.287,176.109 146.200,176.251 146.200 C 176.392 146.200,177.261 145.383,178.182 144.383 L 179.858 142.567 179.379 142.115 C 178.007 140.820,171.726 134.954,170.600 133.917 C 169.885 133.258,168.530 131.995,167.589 131.109 C 162.122 125.969,162.955 126.296,161.000 128.521 M215.967 128.190 C 215.930 128.295,215.313 128.993,214.596 129.740 C 213.878 130.488,212.081 132.405,210.602 134.000 C 209.123 135.595,207.189 137.665,206.305 138.600 C 205.421 139.535,203.618 141.468,202.299 142.895 C 200.209 145.155,196.139 149.525,192.908 152.977 C 192.353 153.569,191.807 154.154,191.692 154.277 C 190.081 156.011,179.533 167.332,177.788 169.200 C 168.857 178.757,165.403 182.530,165.402 182.730 C 165.401 182.856,166.003 183.531,166.739 184.230 C 168.755 186.141,170.916 188.161,172.700 189.800 C 173.580 190.608,175.020 191.958,175.900 192.799 C 176.780 193.640,178.715 195.443,180.200 196.806 C 181.685 198.169,182.998 199.378,183.118 199.492 C 183.237 199.606,184.540 200.825,186.012 202.200 C 187.484 203.575,189.445 205.415,190.370 206.289 L 192.052 207.878 192.659 207.189 C 193.251 206.516,195.003 204.631,201.100 198.101 C 204.587 194.367,208.967 189.667,209.400 189.195 C 209.565 189.015,210.285 188.245,211.000 187.483 C 211.715 186.720,213.469 184.838,214.897 183.298 C 216.326 181.759,218.220 179.735,219.106 178.800 C 219.993 177.865,221.794 175.935,223.109 174.511 C 224.424 173.087,225.635 171.777,225.800 171.601 C 225.965 171.424,227.225 170.073,228.600 168.600 C 229.975 167.127,231.235 165.774,231.400 165.594 C 231.565 165.414,232.330 164.600,233.100 163.784 C 233.871 162.968,235.581 161.130,236.900 159.700 C 238.220 158.270,239.976 156.380,240.802 155.500 C 241.628 154.620,242.513 153.661,242.769 153.369 L 243.235 152.837 241.867 151.552 C 239.094 148.944,230.570 140.994,226.802 137.500 C 224.666 135.520,222.194 133.214,221.309 132.376 C 220.424 131.538,219.025 130.213,218.200 129.432 C 216.801 128.108,216.127 127.733,215.967 128.190 M153.102 136.985 C 151.135 139.191,151.186 138.948,152.444 140.103 C 153.025 140.636,154.805 142.293,156.400 143.786 C 157.995 145.278,159.885 147.038,160.600 147.696 C 161.315 148.354,162.710 149.660,163.700 150.598 C 166.848 153.580,168.203 154.800,168.367 154.800 C 168.581 154.800,171.800 151.282,171.800 151.049 C 171.800 150.949,170.159 149.345,168.154 147.484 C 164.630 144.213,163.219 142.896,160.010 139.880 C 157.400 137.426,154.925 135.200,154.807 135.200 C 154.745 135.200,153.978 136.003,153.102 136.985 M237.218 183.750 C 235.471 185.644,235.384 185.826,236.024 186.275 C 236.258 186.438,237.225 187.324,238.174 188.243 C 239.124 189.162,241.671 191.559,243.835 193.569 C 247.849 197.298,248.200 197.746,248.200 199.138 C 248.200 201.530,245.146 203.088,243.301 201.636 C 242.727 201.185,235.645 194.601,232.830 191.901 L 231.160 190.300 229.385 192.200 C 228.409 193.245,227.609 194.145,227.609 194.200 C 227.608 194.255,230.315 196.820,233.625 199.900 C 240.724 206.506,240.955 206.830,239.999 208.852 C 238.579 211.859,236.731 211.466,232.174 207.191 C 230.703 205.811,228.136 203.404,226.468 201.841 C 224.801 200.278,223.346 199.000,223.236 199.000 C 222.928 199.000,219.777 202.444,219.843 202.710 C 219.933 203.079,236.453 218.421,236.691 218.357 C 236.878 218.307,241.324 213.626,249.178 205.212 C 250.455 203.843,252.513 201.656,253.750 200.351 C 254.988 199.046,256.000 197.905,256.000 197.815 C 256.000 197.725,254.898 196.633,253.550 195.388 C 250.840 192.885,246.367 188.717,243.900 186.394 C 240.194 182.904,239.189 182.000,239.016 182.000 C 238.915 182.000,238.107 182.788,237.218 183.750 M132.250 195.250 C 132.341 195.523,133.296 196.424,148.303 210.388 C 153.911 215.607,159.130 220.474,159.900 221.205 C 161.711 222.923,169.856 230.521,171.911 232.410 C 173.489 233.860,178.152 238.217,180.550 240.483 C 182.047 241.897,182.067 241.885,182.020 239.655 C 181.580 218.962,165.759 200.267,144.990 195.898 C 140.972 195.053,132.033 194.598,132.250 195.250 M259.435 203.437 C 258.782 204.132,258.011 204.984,257.722 205.331 L 257.196 205.963 258.448 207.147 C 260.385 208.978,269.239 217.250,271.833 219.650 L 274.156 221.800 275.463 220.450 C 277.081 218.779,277.600 218.182,277.600 217.990 C 277.600 217.909,276.180 216.505,274.445 214.871 C 268.280 209.067,260.970 202.299,260.798 202.237 C 260.702 202.203,260.089 202.743,259.435 203.437 M251.019 212.391 C 249.070 214.524,249.060 214.362,251.275 216.400 C 253.363 218.321,263.531 227.755,265.070 229.200 L 266.242 230.300 268.021 228.444 C 268.999 227.423,269.793 226.523,269.784 226.444 C 269.766 226.282,253.075 210.731,252.826 210.644 C 252.738 210.614,251.925 211.400,251.019 212.391 M142.727 215.350 C 142.535 217.315,141.811 228.260,141.802 229.336 C 141.801 229.465,142.986 230.669,144.435 232.010 L 147.070 234.447 147.985 234.325 C 148.488 234.257,149.485 234.117,150.200 234.012 C 150.915 233.908,152.539 233.687,153.808 233.522 C 155.077 233.356,157.359 233.036,158.878 232.810 C 160.397 232.585,161.766 232.400,161.920 232.400 C 162.710 232.400,162.468 232.160,150.557 221.120 C 149.976 220.581,148.330 219.041,146.900 217.697 C 142.597 213.654,142.877 213.811,142.727 215.350 M243.039 221.020 C 241.603 222.585,241.413 222.875,241.639 223.150 C 241.782 223.325,244.510 225.900,247.700 228.873 C 250.890 231.846,254.040 234.785,254.700 235.403 C 258.798 239.244,258.129 239.065,260.182 236.871 C 262.126 234.793,262.130 235.044,260.126 233.200 C 259.230 232.375,257.239 230.530,255.701 229.100 C 254.163 227.670,252.323 225.960,251.612 225.300 C 250.901 224.640,249.549 223.373,248.609 222.484 C 244.466 218.566,245.130 218.740,243.039 221.020 M132.758 235.584 C 133.166 235.795,134.805 237.203,136.400 238.713 C 137.995 240.224,139.819 241.911,140.454 242.463 C 142.509 244.251,142.631 246.441,140.755 247.872 C 139.992 248.453,138.549 248.597,137.737 248.171 C 137.059 247.816,129.071 240.432,128.721 239.836 C 127.219 237.282,130.124 234.222,132.758 235.584 M123.389 246.150 C 123.504 246.563,123.598 247.102,123.599 247.349 C 123.606 250.273,127.968 253.894,132.094 254.401 C 133.081 254.523,133.902 254.640,133.918 254.661 C 133.933 254.683,134.007 255.398,134.081 256.250 L 134.217 257.800 133.058 257.798 C 126.766 257.785,120.775 252.727,120.105 246.864 L 119.964 245.628 120.632 245.546 C 122.848 245.274,123.166 245.344,123.389 246.150 M106.231 247.576 C 106.319 249.608,106.467 250.374,107.242 252.800 C 110.846 264.091,121.116 271.567,133.121 271.638 L 135.368 271.652 135.544 273.076 C 135.650 273.932,135.646 274.600,135.535 274.750 C 135.310 275.055,132.396 275.089,130.439 274.808 C 129.702 274.703,128.425 274.519,127.600 274.401 C 115.858 272.713,105.450 262.344,103.199 250.093 C 102.623 246.959,102.670 246.853,104.620 246.853 L 106.200 246.853 106.231 247.576 M88.884 248.321 C 89.082 248.398,89.200 248.684,89.200 249.090 C 89.200 251.186,90.590 256.772,92.089 260.700 C 92.383 261.470,92.668 262.325,92.723 262.600 C 92.823 263.104,93.930 265.243,95.281 267.543 C 96.169 269.055,98.717 272.502,99.970 273.887 C 100.474 274.444,101.063 275.103,101.278 275.350 L 101.670 275.800 99.475 275.800 L 97.280 275.800 96.100 274.366 C 93.438 271.130,90.179 265.687,89.294 263.000 C 89.095 262.395,88.640 261.090,88.284 260.100 C 87.180 257.037,85.864 250.914,85.804 248.562 C 85.797 248.326,88.372 248.125,88.884 248.321 M72.173 251.650 C 72.556 254.726,72.762 255.842,73.496 258.800 C 73.865 260.285,74.225 261.849,74.297 262.276 C 74.732 264.860,79.166 274.504,81.529 278.007 C 83.320 280.663,83.526 280.951,84.621 282.327 L 85.700 283.684 85.755 280.742 L 85.811 277.800 103.305 277.800 L 120.800 277.800 120.800 281.000 L 120.800 284.200 113.700 284.200 L 106.600 284.200 106.600 298.500 L 106.600 312.800 103.400 312.800 L 100.200 312.800 100.200 298.500 L 100.200 284.200 93.185 284.200 L 86.170 284.200 88.589 286.879 C 90.819 289.350,94.198 292.348,97.150 294.477 L 98.200 295.234 98.200 297.137 L 98.200 299.039 97.550 298.632 C 90.815 294.407,81.975 285.341,77.973 278.554 C 75.187 273.830,71.193 264.661,70.922 262.370 C 70.865 261.891,70.594 260.645,70.319 259.600 C 69.832 257.744,68.876 252.294,68.759 250.700 L 68.700 249.900 69.800 249.783 C 72.143 249.533,71.885 249.330,72.173 251.650 M139.402 292.450 C 143.502 300.507,147.526 308.382,148.345 309.950 L 149.834 312.800 146.160 312.800 L 142.486 312.800 137.193 302.405 C 134.282 296.687,131.855 292.009,131.800 292.008 C 131.745 292.008,129.315 296.686,126.400 302.403 L 121.100 312.799 117.434 312.800 L 113.768 312.800 115.658 309.150 C 116.698 307.143,120.718 299.268,124.593 291.650 C 128.467 284.032,131.707 277.800,131.793 277.800 C 131.879 277.800,135.303 284.393,139.402 292.450 M155.248 287.450 C 155.337 298.054,155.316 297.855,156.650 300.500 C 161.097 309.314,173.969 307.867,177.113 298.200 C 177.431 297.221,177.480 296.036,177.552 287.450 L 177.633 277.800 180.831 277.800 L 184.029 277.800 183.952 287.950 C 183.866 299.302,183.859 299.367,182.315 302.708 C 176.090 316.182,156.710 316.182,150.485 302.708 C 148.941 299.367,148.934 299.302,148.848 287.950 L 148.771 277.800 151.969 277.800 L 155.167 277.800 155.248 287.450 M245.274 278.667 C 248.310 280.168,250.361 283.054,250.556 286.099 L 250.653 287.600 247.426 287.600 L 244.200 287.600 244.200 287.030 C 244.200 286.361,243.535 285.311,242.736 284.718 C 241.812 284.033,226.700 283.974,225.500 284.650 C 223.480 285.790,223.354 288.694,225.264 290.088 C 225.805 290.483,226.158 290.504,233.764 290.607 C 241.382 290.709,241.752 290.731,243.000 291.172 C 253.261 294.791,253.145 309.220,242.829 312.407 C 240.636 313.085,227.168 313.000,225.070 312.296 C 220.843 310.877,218.002 307.330,217.500 302.845 L 217.360 301.590 220.624 301.645 L 223.889 301.700 224.032 302.535 C 224.313 304.186,225.688 305.783,227.187 306.200 C 228.222 306.487,240.054 306.460,241.028 306.168 C 244.278 305.194,245.268 300.826,242.774 298.460 C 241.364 297.122,241.340 297.119,232.500 296.995 C 223.912 296.875,223.829 296.865,222.022 295.754 C 215.124 291.512,216.317 280.651,223.952 278.185 C 225.011 277.843,225.821 277.817,234.411 277.857 L 243.722 277.900 245.274 278.667 M276.402 292.450 C 280.502 300.507,284.526 308.382,285.345 309.950 L 286.834 312.800 283.160 312.800 L 279.486 312.800 274.193 302.405 C 271.282 296.687,268.855 292.009,268.800 292.008 C 268.745 292.008,266.315 296.686,263.400 302.403 L 258.100 312.799 254.434 312.800 L 250.768 312.800 252.658 309.150 C 253.698 307.143,257.718 299.268,261.593 291.650 C 265.467 284.032,268.707 277.800,268.793 277.800 C 268.879 277.800,272.303 284.393,276.402 292.450 M314.600 281.000 L 314.600 284.200 307.500 284.200 L 300.400 284.200 300.400 298.500 L 300.400 312.800 297.200 312.800 L 294.000 312.800 294.000 298.500 L 294.000 284.200 286.800 284.200 L 279.600 284.200 279.600 281.000 L 279.600 277.800 297.100 277.800 L 314.600 277.800 314.600 281.000 M118.311 286.391 C 118.496 286.576,121.350 287.427,123.234 287.859 L 124.168 288.073 123.461 289.486 C 123.072 290.264,122.726 290.930,122.692 290.967 C 122.499 291.182,117.651 289.821,117.100 289.398 C 116.990 289.313,115.955 288.870,114.800 288.414 C 113.645 287.957,112.115 287.277,111.400 286.902 L 110.100 286.219 114.110 286.210 C 116.400 286.204,118.202 286.282,118.311 286.391 M212.600 296.200 L 212.600 299.400 200.700 299.400 L 188.800 299.400 188.800 296.200 L 188.800 293.000 200.700 293.000 L 212.600 293.000 212.600 296.200 M112.728 302.486 L 116.357 303.700 115.655 305.100 C 115.269 305.870,114.926 306.529,114.894 306.565 C 114.785 306.688,111.906 305.800,110.200 305.117 L 108.500 304.437 108.442 302.694 C 108.388 301.081,108.411 300.963,108.742 301.111 C 108.939 301.200,110.733 301.818,112.728 302.486 M137.314 307.227 C 137.761 308.115,137.959 308.721,137.842 308.838 C 137.516 309.164,125.000 309.367,125.000 309.046 C 125.000 309.016,125.350 308.296,125.777 307.446 L 126.554 305.900 131.576 305.852 L 136.597 305.805 137.314 307.227 " stroke="none" fill="#fbfbfb" fill-rule="evenodd"></path><path id="path2" d="M85.800 281.000 L 85.800 284.200 93.000 284.200 L 100.200 284.200 100.200 298.500 L 100.200 312.800 103.400 312.800 L 106.600 312.800 106.600 298.500 L 106.600 284.200 113.700 284.200 L 120.800 284.200 120.800 281.000 L 120.800 277.800 103.300 277.800 L 85.800 277.800 85.800 281.000 M124.593 291.650 C 120.718 299.268,116.698 307.143,115.658 309.150 L 113.768 312.800 117.434 312.800 L 121.100 312.799 126.400 302.403 C 129.315 296.686,131.745 292.008,131.800 292.008 C 131.855 292.009,134.282 296.687,137.193 302.405 L 142.486 312.800 146.160 312.800 L 149.834 312.800 148.345 309.950 C 147.526 308.382,143.502 300.507,139.402 292.450 C 135.303 284.393,131.879 277.800,131.793 277.800 C 131.707 277.800,128.467 284.032,124.593 291.650 M148.848 287.950 C 148.934 299.302,148.941 299.367,150.485 302.708 C 156.710 316.182,176.090 316.182,182.315 302.708 C 183.859 299.367,183.866 299.302,183.952 287.950 L 184.029 277.800 180.831 277.800 L 177.633 277.800 177.552 287.450 C 177.480 296.036,177.431 297.221,177.113 298.200 C 173.570 309.093,159.230 309.093,155.687 298.200 C 155.369 297.221,155.320 296.036,155.248 287.450 L 155.167 277.800 151.969 277.800 L 148.771 277.800 148.848 287.950 M223.382 278.378 C 215.164 281.593,215.785 294.697,224.250 296.712 L 224.800 296.843 224.799 293.372 C 224.798 290.067,224.774 289.853,224.299 288.916 C 224.025 288.375,223.800 287.693,223.800 287.400 C 223.800 287.107,224.025 286.425,224.299 285.884 C 224.774 284.948,224.798 284.731,224.799 281.450 C 224.800 277.621,224.879 277.792,223.382 278.378 M188.800 296.200 L 188.800 299.400 200.700 299.400 L 212.600 299.400 212.600 296.200 L 212.600 293.000 200.700 293.000 L 188.800 293.000 188.800 296.200 M217.498 302.845 C 217.808 305.651,218.991 307.999,221.072 309.941 C 222.083 310.885,224.188 312.200,224.687 312.200 C 224.982 312.200,224.796 304.572,224.487 303.975 C 224.315 303.642,224.110 302.994,224.032 302.535 L 223.889 301.700 220.624 301.645 L 217.360 301.590 217.498 302.845 " stroke="none" fill="#bd3232" fill-rule="evenodd"></path><path id="path3" d="M241.550 111.341 C 241.798 111.389,242.203 111.389,242.450 111.341 C 242.697 111.293,242.495 111.254,242.000 111.254 C 241.505 111.254,241.303 111.293,241.550 111.341 M241.250 117.343 C 241.553 117.389,242.048 117.389,242.350 117.343 C 242.653 117.297,242.405 117.260,241.800 117.260 C 241.195 117.260,240.947 117.297,241.250 117.343 M236.352 117.541 C 236.601 117.589,236.961 117.587,237.152 117.537 C 237.344 117.487,237.140 117.448,236.700 117.450 C 236.260 117.453,236.104 117.494,236.352 117.541 M239.400 149.100 C 239.773 149.485,240.123 149.800,240.178 149.800 C 240.233 149.800,239.973 149.485,239.600 149.100 C 239.227 148.715,238.877 148.400,238.822 148.400 C 238.767 148.400,239.027 148.715,239.400 149.100 M135.150 194.741 C 135.398 194.789,135.803 194.789,136.050 194.741 C 136.297 194.693,136.095 194.654,135.600 194.654 C 135.105 194.654,134.903 194.693,135.150 194.741 M165.087 196.650 L 164.500 197.300 165.150 196.713 C 165.508 196.390,165.800 196.097,165.800 196.063 C 165.800 195.908,165.635 196.044,165.087 196.650 M136.457 216.300 C 136.459 216.850,136.498 217.051,136.544 216.747 C 136.589 216.443,136.588 215.993,136.541 215.747 C 136.493 215.501,136.456 215.750,136.457 216.300 M135.854 225.200 C 135.854 225.695,135.893 225.898,135.941 225.650 C 135.989 225.403,135.989 224.998,135.941 224.750 C 135.893 224.503,135.854 224.705,135.854 225.200 M102.926 247.421 C 102.638 248.862,104.012 254.087,105.561 257.439 C 109.591 266.162,118.618 273.109,127.600 274.401 C 128.425 274.519,129.702 274.703,130.439 274.808 C 132.396 275.089,135.310 275.055,135.535 274.750 C 135.646 274.600,135.650 273.932,135.544 273.076 L 135.368 271.652 133.121 271.638 C 121.116 271.567,110.846 264.091,107.242 252.800 C 106.467 250.374,106.319 249.608,106.231 247.576 L 106.200 246.853 104.620 246.853 C 103.044 246.853,103.039 246.854,102.926 247.421 M86.550 248.346 C 86.138 248.389,85.802 248.486,85.804 248.562 C 85.864 250.914,87.180 257.037,88.284 260.100 C 88.640 261.090,89.095 262.395,89.294 263.000 C 90.163 265.640,93.416 271.096,96.011 274.264 L 97.100 275.595 99.281 275.597 L 101.462 275.600 101.083 275.150 C 100.874 274.903,100.332 274.289,99.878 273.787 C 98.702 272.486,96.140 269.006,95.281 267.543 C 93.930 265.243,92.823 263.104,92.723 262.600 C 92.668 262.325,92.383 261.470,92.089 260.700 C 90.590 256.772,89.200 251.186,89.200 249.090 C 89.200 248.195,88.872 248.103,86.550 248.346 M69.800 249.783 L 68.700 249.900 68.759 250.700 C 68.876 252.294,69.832 257.744,70.319 259.600 C 70.594 260.645,70.865 261.891,70.922 262.370 C 71.193 264.661,75.187 273.830,77.973 278.554 C 81.975 285.341,90.815 294.407,97.550 298.632 L 98.200 299.039 98.200 297.137 L 98.200 295.234 97.150 294.477 C 94.198 292.348,90.819 289.350,88.589 286.879 C 87.258 285.406,86.087 284.200,85.985 284.200 C 85.883 284.200,85.800 284.103,85.800 283.984 C 85.800 283.866,85.283 283.123,84.650 282.333 C 80.531 277.191,75.007 266.489,74.297 262.276 C 74.225 261.849,73.865 260.285,73.496 258.800 C 72.762 255.842,72.556 254.726,72.173 251.650 C 71.885 249.330,72.143 249.533,69.800 249.783 M111.400 286.902 C 112.115 287.277,113.645 287.957,114.800 288.414 C 115.955 288.870,116.990 289.309,117.100 289.389 C 117.612 289.762,121.669 290.981,122.447 290.997 C 122.601 291.000,124.073 288.196,123.963 288.109 C 123.928 288.082,123.540 287.964,123.100 287.846 C 120.019 287.024,118.475 286.555,118.311 286.391 C 118.202 286.282,116.400 286.204,114.110 286.210 L 110.100 286.219 111.400 286.902 M108.601 302.757 L 108.602 304.500 110.551 305.241 C 112.146 305.847,114.463 306.600,114.734 306.600 C 114.805 306.600,116.200 303.856,116.200 303.716 C 116.200 303.664,114.895 303.208,113.300 302.703 C 111.704 302.198,109.994 301.612,109.500 301.400 L 108.600 301.014 108.601 302.757 M125.846 307.500 L 125.053 309.100 125.676 309.122 C 130.036 309.274,137.407 309.143,137.791 308.906 C 137.907 308.834,137.685 308.171,137.252 307.295 L 136.515 305.806 131.577 305.853 L 126.640 305.900 125.846 307.500 " stroke="none" fill="#34c5c5" fill-rule="evenodd"></path><path id="path4" d="M147.996 90.466 C 147.101 90.881,146.711 91.247,143.593 94.600 C 141.904 96.415,140.787 97.675,141.110 97.400 C 141.432 97.125,141.742 96.842,141.798 96.771 C 142.061 96.437,146.169 92.042,146.695 91.533 C 147.404 90.845,148.060 90.567,148.979 90.563 C 149.451 90.561,149.574 90.506,149.379 90.383 C 149.017 90.153,148.619 90.177,147.996 90.466 M150.123 90.857 C 150.356 90.991,152.430 92.855,154.732 95.000 C 157.034 97.145,163.414 103.093,168.909 108.217 C 174.404 113.342,179.618 118.202,180.495 119.017 C 195.275 132.757,195.184 132.665,195.183 133.900 C 195.181 134.948,194.783 135.482,190.902 139.635 C 185.512 145.403,184.469 146.560,186.516 144.500 C 189.654 141.342,194.892 135.597,195.141 135.039 C 195.692 133.806,195.204 132.354,193.839 131.171 C 193.170 130.591,188.118 125.898,178.800 117.200 C 166.255 105.490,162.930 102.390,156.699 96.594 C 150.435 90.768,150.245 90.599,149.959 90.607 C 149.816 90.611,149.890 90.723,150.123 90.857 M138.995 99.510 C 138.173 100.341,137.635 100.958,137.800 100.882 C 138.101 100.744,140.747 98.000,140.579 98.000 C 140.530 98.000,139.817 98.680,138.995 99.510 M147.136 99.702 C 145.116 101.896,145.262 101.895,147.365 99.700 C 148.261 98.765,148.928 98.001,148.847 98.002 C 148.766 98.002,147.996 98.767,147.136 99.702 M149.200 98.034 C 149.200 98.099,151.516 100.300,154.347 102.926 C 162.789 110.756,165.900 113.693,165.900 113.831 C 165.900 114.006,165.189 114.809,162.342 117.850 C 161.029 119.253,159.999 120.400,160.053 120.400 C 160.245 120.400,166.220 113.961,166.161 113.819 C 166.104 113.685,163.114 110.871,156.700 104.916 C 154.379 102.761,152.795 101.284,150.050 98.713 C 149.583 98.275,149.200 97.970,149.200 98.034 M136.691 102.024 C 136.256 102.476,136.080 102.735,136.300 102.599 C 136.673 102.368,137.721 101.200,137.556 101.200 C 137.515 101.200,137.125 101.571,136.691 102.024 M145.600 102.140 C 145.600 102.264,145.679 102.397,145.776 102.433 C 146.030 102.529,153.736 109.720,156.075 112.044 C 157.161 113.122,157.899 113.776,157.716 113.496 C 157.373 112.973,156.862 112.480,151.200 107.203 C 149.385 105.512,147.383 103.630,146.750 103.020 C 146.118 102.411,145.600 102.015,145.600 102.140 M133.480 105.460 C 132.611 106.373,131.278 107.791,130.518 108.610 C 129.757 109.430,128.497 110.776,127.718 111.602 C 122.517 117.110,122.224 117.483,122.103 118.737 L 122.011 119.700 122.215 118.720 C 122.485 117.427,122.321 117.632,127.400 112.199 C 127.785 111.787,129.090 110.385,130.300 109.083 C 133.439 105.705,133.411 105.736,134.392 104.722 C 134.882 104.215,135.233 103.800,135.171 103.800 C 135.110 103.800,134.348 104.547,133.480 105.460 M139.265 108.150 C 138.389 109.113,137.616 109.997,137.547 110.115 C 137.477 110.233,138.113 110.998,138.960 111.815 L 140.500 113.300 139.030 111.775 L 137.560 110.250 139.189 108.475 C 140.085 107.499,140.945 106.700,141.100 106.700 C 141.256 106.700,143.694 108.860,146.519 111.500 C 153.452 117.978,153.464 117.988,154.234 118.104 L 154.900 118.204 154.163 117.952 C 153.660 117.780,151.784 116.170,148.263 112.890 C 141.502 106.592,141.289 106.400,141.056 106.400 C 140.946 106.400,140.140 107.188,139.265 108.150 M229.785 110.995 C 229.392 111.203,228.724 111.762,228.301 112.237 C 227.878 112.711,226.489 114.211,225.216 115.570 C 223.942 116.928,222.864 118.137,222.821 118.257 C 222.732 118.501,223.674 117.530,226.200 114.774 C 229.546 111.124,230.093 110.725,231.605 110.832 C 232.132 110.870,232.521 110.833,232.469 110.750 C 232.288 110.458,230.491 110.623,229.785 110.995 M234.817 110.874 C 234.863 110.915,236.070 110.996,237.500 111.053 C 239.220 111.122,239.660 111.105,238.800 111.002 C 237.419 110.837,234.677 110.749,234.817 110.874 M244.100 111.397 C 247.318 111.988,248.347 112.603,252.251 116.271 C 255.806 119.611,255.634 119.419,256.528 121.041 C 256.910 121.733,257.166 122.099,257.098 121.852 C 256.665 120.283,255.799 119.277,251.378 115.198 C 248.383 112.435,246.622 111.489,244.107 111.292 L 243.100 111.213 244.100 111.397 M140.667 113.340 C 140.746 113.471,142.721 115.360,145.055 117.537 C 147.390 119.714,149.361 121.586,149.436 121.697 C 149.904 122.392,150.230 122.678,149.895 122.100 C 149.704 121.770,149.312 121.291,149.024 121.035 C 148.736 120.780,147.960 120.060,147.300 119.435 C 143.778 116.104,140.541 113.129,140.667 113.340 M158.034 115.163 C 157.997 116.100,157.784 116.625,157.125 117.400 L 156.700 117.900 157.234 117.430 C 157.941 116.808,158.245 116.024,158.147 115.076 L 158.067 114.300 158.034 115.163 M131.228 116.781 C 130.333 117.761,129.600 118.652,129.600 118.761 C 129.600 118.989,129.574 118.964,138.705 127.500 C 140.352 129.040,142.217 130.786,142.850 131.380 C 143.482 131.975,144.000 132.412,144.000 132.353 C 144.000 132.252,141.628 130.001,134.900 123.716 C 128.825 118.040,129.354 119.057,131.342 116.885 C 133.144 114.917,133.149 114.915,134.479 116.140 C 137.086 118.540,140.696 121.902,142.891 123.973 C 145.397 126.337,146.141 126.816,147.244 126.776 C 147.799 126.757,147.756 126.729,146.966 126.595 C 145.829 126.404,145.664 126.314,144.567 125.293 C 144.090 124.849,141.630 122.561,139.100 120.208 C 136.570 117.856,134.285 115.722,134.023 115.466 C 133.274 114.735,132.965 114.881,131.228 116.781 M242.100 117.407 C 241.467 117.523,241.551 117.538,242.500 117.478 C 243.461 117.418,243.899 117.499,244.700 117.885 C 245.837 118.432,250.448 122.643,251.149 123.775 C 251.396 124.174,251.598 124.410,251.598 124.300 C 251.597 123.524,246.273 118.408,244.700 117.672 C 243.661 117.186,243.433 117.162,242.100 117.407 M238.256 117.547 C 238.782 117.589,239.592 117.588,240.056 117.546 C 240.520 117.504,240.090 117.470,239.100 117.471 C 238.110 117.472,237.730 117.506,238.256 117.547 M231.660 117.729 C 231.370 117.847,224.143 125.574,223.924 126.000 C 223.803 126.236,223.827 126.233,224.035 125.984 C 225.608 124.110,231.568 117.967,231.885 117.894 C 232.113 117.841,233.380 117.773,234.700 117.742 L 237.100 117.686 234.500 117.659 C 233.070 117.644,231.792 117.675,231.660 117.729 M155.800 118.000 C 155.388 118.132,155.370 118.163,155.700 118.177 C 155.920 118.186,156.235 118.107,156.400 118.000 C 156.750 117.774,156.507 117.774,155.800 118.000 M168.723 120.010 C 167.775 121.006,167.000 121.890,167.000 121.975 C 167.000 122.156,167.979 123.095,173.900 128.592 C 176.320 130.839,179.111 133.447,180.102 134.389 C 183.077 137.215,183.961 138.000,184.169 138.000 C 184.426 138.000,187.799 134.366,187.799 134.089 C 187.800 133.926,181.339 127.780,177.221 124.025 C 176.934 123.764,176.115 122.993,175.400 122.313 C 172.456 119.511,170.962 118.200,170.711 118.200 C 170.565 118.200,169.670 119.015,168.723 120.010 M175.851 122.950 C 178.530 125.453,182.270 128.938,184.161 130.695 C 186.053 132.452,187.597 133.982,187.594 134.095 C 187.591 134.208,186.840 135.105,185.926 136.090 L 184.264 137.880 183.682 137.423 C 183.156 137.010,178.257 132.473,173.814 128.284 C 172.871 127.395,170.998 125.648,169.650 124.402 C 168.303 123.155,167.200 122.073,167.200 121.997 C 167.200 121.725,170.442 118.400,170.708 118.400 C 170.857 118.400,173.171 120.447,175.851 122.950 M221.100 119.996 C 219.528 121.755,219.224 121.860,218.208 120.992 C 217.827 120.666,217.377 120.401,217.208 120.401 C 217.038 120.402,217.170 120.543,217.500 120.715 C 217.830 120.886,218.286 121.201,218.513 121.413 C 218.740 121.626,219.088 121.800,219.286 121.800 C 219.631 121.800,222.014 119.480,222.420 118.750 C 222.725 118.199,222.590 118.327,221.100 119.996 M215.296 120.370 C 214.489 120.630,214.895 120.213,202.998 132.991 C 188.893 148.142,188.166 148.900,187.683 148.963 C 187.418 148.998,187.200 148.951,187.200 148.858 C 187.200 148.765,186.641 148.197,185.958 147.596 C 185.275 146.995,184.799 146.636,184.899 146.799 C 185.000 146.962,185.356 147.320,185.691 147.595 C 186.026 147.870,186.539 148.344,186.830 148.648 C 187.756 149.612,187.528 149.823,199.704 136.753 C 215.801 119.475,214.624 120.664,215.867 120.436 C 216.510 120.319,216.673 120.246,216.300 120.244 C 215.970 120.242,215.518 120.298,215.296 120.370 M125.071 123.050 C 126.509 124.453,127.777 125.600,127.889 125.600 C 128.001 125.600,127.644 125.219,127.096 124.754 C 126.548 124.288,125.308 123.141,124.340 122.204 C 123.372 121.267,122.552 120.500,122.519 120.500 C 122.485 120.500,123.633 121.647,125.071 123.050 M158.100 122.374 C 151.711 129.274,146.725 134.600,146.654 134.600 C 146.608 134.600,146.014 134.085,145.335 133.456 L 144.100 132.312 145.100 133.371 C 146.712 135.078,146.283 135.289,150.624 130.644 C 152.754 128.365,155.745 125.172,157.269 123.550 C 158.794 121.928,159.965 120.610,159.871 120.623 C 159.777 120.635,158.980 121.423,158.100 122.374 M257.514 123.200 C 257.580 123.475,257.703 124.285,257.788 125.000 L 257.943 126.300 257.956 125.200 C 257.964 124.595,257.840 123.785,257.682 123.400 C 257.524 123.015,257.448 122.925,257.514 123.200 M150.229 123.600 C 150.179 124.577,149.430 125.789,148.603 126.229 C 148.220 126.433,148.026 126.600,148.172 126.600 C 149.119 126.600,150.486 124.671,150.344 123.535 L 150.264 122.900 150.229 123.600 M128.500 126.309 C 128.830 126.608,129.775 127.486,130.600 128.259 C 131.425 129.031,132.640 130.165,133.300 130.779 C 133.960 131.392,135.173 132.525,135.996 133.297 C 137.163 134.392,137.295 134.481,136.598 133.700 C 136.107 133.150,135.435 132.475,135.104 132.200 C 134.445 131.651,132.198 129.558,130.309 127.732 C 129.644 127.090,128.830 126.384,128.500 126.164 L 127.900 125.763 128.500 126.309 M224.200 126.624 C 224.540 126.975,230.373 132.433,232.500 134.390 C 233.270 135.098,235.790 137.444,238.100 139.602 C 240.410 141.760,242.772 143.959,243.348 144.488 L 244.396 145.451 245.148 144.676 C 245.886 143.915,249.515 140.016,251.963 137.355 C 252.643 136.615,253.197 135.895,253.193 135.755 C 253.189 135.615,253.077 135.694,252.943 135.932 C 252.727 136.315,246.401 143.221,244.943 144.665 L 244.373 145.229 243.336 144.274 C 242.766 143.749,240.416 141.560,238.114 139.409 C 235.812 137.259,233.292 134.917,232.514 134.205 C 231.736 133.493,229.705 131.603,228.000 130.005 C 225.284 127.461,223.314 125.707,224.200 126.624 M160.900 128.403 C 158.956 130.588,158.972 130.522,160.093 131.572 C 160.592 132.039,161.000 132.358,161.000 132.280 C 161.000 132.202,160.640 131.830,160.200 131.454 C 159.158 130.561,159.152 130.581,160.938 128.600 C 162.998 126.313,162.146 125.992,167.589 131.109 C 168.530 131.995,169.885 133.258,170.600 133.917 C 171.726 134.954,178.007 140.820,179.379 142.115 L 179.858 142.567 178.182 144.383 C 177.261 145.383,176.392 146.200,176.251 146.200 C 176.109 146.200,173.954 144.287,171.462 141.950 C 168.969 139.613,166.293 137.127,165.515 136.426 L 164.100 135.152 165.505 136.526 C 169.342 140.279,175.999 146.400,176.243 146.400 C 176.474 146.400,180.000 142.790,180.000 142.554 C 180.000 142.512,178.225 140.818,176.055 138.789 C 173.885 136.760,170.066 133.188,167.569 130.850 C 165.071 128.513,162.909 126.601,162.764 126.603 C 162.619 126.604,161.780 127.415,160.900 128.403 M258.144 128.300 C 258.207 129.180,258.327 130.080,258.411 130.300 C 258.589 130.762,258.424 128.686,258.189 127.500 C 258.088 126.987,258.072 127.274,258.144 128.300 M252.044 127.600 C 252.039 127.985,252.105 128.750,252.191 129.300 C 252.317 130.109,252.348 130.166,252.356 129.600 C 252.361 129.215,252.295 128.450,252.209 127.900 C 252.083 127.091,252.052 127.034,252.044 127.600 M212.351 131.863 C 210.289 134.083,208.318 136.215,207.970 136.600 C 207.621 136.985,206.743 137.925,206.018 138.688 C 205.293 139.452,204.871 139.947,205.081 139.788 C 205.290 139.630,207.221 137.610,209.372 135.300 C 211.523 132.990,213.871 130.488,214.591 129.740 C 215.311 128.993,215.930 128.295,215.967 128.190 C 216.117 127.761,216.749 128.058,217.794 129.050 L 218.900 130.100 217.807 128.950 C 216.350 127.417,216.607 127.280,212.351 131.863 M219.135 130.250 C 219.202 130.388,219.942 131.128,220.779 131.895 L 222.300 133.290 220.705 131.645 C 219.050 129.939,218.931 129.833,219.135 130.250 M258.750 132.800 C 258.808 133.845,258.888 134.738,258.928 134.783 C 259.068 134.945,258.975 132.489,258.811 131.700 C 258.701 131.169,258.680 131.538,258.750 132.800 M252.541 132.100 C 252.604 132.650,252.689 133.138,252.728 133.183 C 252.878 133.357,252.764 131.882,252.599 131.500 C 252.487 131.243,252.466 131.457,252.541 132.100 M162.500 133.800 C 163.264 134.570,163.934 135.200,163.989 135.200 C 164.044 135.200,163.464 134.570,162.700 133.800 C 161.936 133.030,161.266 132.400,161.211 132.400 C 161.156 132.400,161.736 133.030,162.500 133.800 M222.400 133.357 C 222.400 133.480,222.527 133.652,222.682 133.740 C 222.837 133.828,224.701 135.520,226.824 137.500 C 232.695 142.975,240.339 150.115,241.850 151.535 C 242.593 152.233,243.200 152.748,243.200 152.680 C 243.200 152.611,242.550 151.958,241.756 151.227 C 240.961 150.497,238.104 147.838,235.406 145.317 C 232.708 142.797,229.285 139.603,227.800 138.221 C 226.315 136.838,224.493 135.128,223.750 134.421 C 223.007 133.713,222.400 133.235,222.400 133.357 M252.850 134.700 C 252.853 135.140,252.894 135.296,252.941 135.048 C 252.989 134.799,252.987 134.439,252.937 134.248 C 252.887 134.056,252.848 134.260,252.850 134.700 M139.203 136.223 C 140.140 137.145,141.490 138.440,142.204 139.100 C 142.918 139.760,145.527 142.183,148.001 144.484 C 154.820 150.826,155.092 151.071,152.661 148.700 C 151.421 147.490,149.438 145.608,148.253 144.519 C 147.069 143.429,145.285 141.764,144.288 140.819 C 140.929 137.632,137.352 134.400,139.203 136.223 M155.100 135.334 C 155.320 135.557,156.175 136.354,157.000 137.105 C 158.405 138.385,159.267 139.187,163.014 142.700 C 163.835 143.470,166.148 145.623,168.154 147.484 C 171.993 151.047,172.046 151.116,171.377 151.719 C 171.145 151.929,170.412 152.730,169.749 153.500 C 168.763 154.645,168.856 154.572,170.263 153.100 C 171.208 152.110,171.986 151.201,171.991 151.079 C 171.996 150.958,169.644 148.663,166.765 145.979 C 163.886 143.296,160.803 140.416,159.915 139.579 C 157.006 136.839,153.737 133.958,155.100 135.334 M152.902 136.985 C 152.026 137.967,151.282 138.855,151.247 138.958 C 151.213 139.060,152.921 140.762,155.043 142.739 C 157.164 144.717,160.941 148.239,163.435 150.567 C 165.929 152.895,168.023 154.800,168.089 154.800 C 168.154 154.800,167.598 154.238,166.854 153.552 C 166.109 152.865,164.690 151.536,163.700 150.598 C 162.710 149.660,161.315 148.354,160.600 147.696 C 159.885 147.038,157.995 145.278,156.400 143.786 C 154.805 142.293,153.028 140.639,152.450 140.109 C 151.163 138.928,151.148 139.127,152.650 137.472 C 154.243 135.718,154.683 135.200,154.578 135.200 C 154.532 135.200,153.778 136.003,152.902 136.985 M259.232 136.737 C 259.189 137.861,258.901 138.562,258.138 139.400 L 257.500 140.100 258.255 139.406 C 259.095 138.634,259.476 137.656,259.349 136.600 C 259.267 135.921,259.263 135.925,259.232 136.737 M200.681 144.450 C 198.509 146.787,196.005 149.453,195.116 150.373 C 194.227 151.293,193.593 152.013,193.706 151.973 C 193.819 151.933,195.296 150.415,196.989 148.600 C 198.681 146.785,200.653 144.670,201.371 143.900 C 202.089 143.130,203.174 141.983,203.782 141.350 C 204.390 140.718,204.830 140.200,204.759 140.200 C 204.689 140.200,202.854 142.113,200.681 144.450 M257.288 140.353 C 257.172 140.434,255.784 141.895,254.204 143.600 C 252.624 145.305,250.800 147.260,250.151 147.944 C 248.855 149.310,248.734 149.838,249.600 150.350 L 250.100 150.645 249.650 150.241 C 248.914 149.579,249.025 149.415,253.409 144.714 C 255.724 142.231,257.591 140.201,257.559 140.203 C 257.526 140.205,257.405 140.272,257.288 140.353 M250.188 151.053 C 250.334 151.247,250.526 151.922,250.615 152.553 L 250.776 153.700 250.721 152.540 C 250.681 151.716,250.558 151.281,250.294 151.040 C 249.942 150.719,249.937 150.719,250.188 151.053 M156.788 152.601 C 157.620 153.427,159.470 155.188,160.900 156.514 C 162.330 157.840,164.268 159.640,165.206 160.513 C 167.196 162.363,167.980 162.728,169.238 162.390 C 170.256 162.116,169.824 162.546,178.313 153.350 C 180.651 150.817,180.316 150.900,182.083 152.418 L 183.500 153.637 182.127 152.318 C 180.387 150.647,180.641 150.577,177.992 153.450 C 171.435 160.562,170.046 161.935,169.158 162.183 C 167.580 162.624,167.835 162.821,157.835 153.418 C 156.479 152.143,155.349 151.100,155.323 151.100 C 155.297 151.100,155.957 151.776,156.788 152.601 M188.077 157.950 C 185.127 161.113,182.179 164.263,181.525 164.950 C 180.872 165.638,180.388 166.200,180.450 166.200 C 180.512 166.200,182.972 163.613,185.916 160.450 C 188.861 157.288,191.366 154.606,191.485 154.490 C 192.359 153.637,193.663 152.200,193.562 152.200 C 193.494 152.200,191.026 154.788,188.077 157.950 M242.376 153.793 C 242.004 154.229,240.677 155.692,239.426 157.043 L 237.152 159.500 239.578 157.000 C 241.913 154.595,243.334 153.000,243.143 153.000 C 243.093 153.000,242.748 153.357,242.376 153.793 M250.400 153.992 C 250.400 154.143,245.264 159.820,244.322 160.710 C 243.557 161.433,242.137 163.000,242.247 163.000 C 242.449 163.000,250.600 154.211,250.600 153.992 C 250.600 153.887,250.555 153.800,250.500 153.800 C 250.445 153.800,250.400 153.886,250.400 153.992 M179.169 158.556 C 176.931 160.951,173.390 164.749,171.300 166.996 C 169.210 169.242,165.444 173.280,162.930 175.968 C 157.950 181.295,157.602 181.743,157.601 182.837 C 157.599 184.176,157.785 184.436,160.712 187.199 C 161.816 188.241,161.634 188.017,160.118 186.464 C 156.427 182.684,156.027 183.597,166.107 172.800 C 183.395 154.285,183.474 154.200,183.341 154.200 C 183.284 154.200,181.407 156.160,179.169 158.556 M235.863 160.850 C 235.212 161.538,234.016 162.797,233.206 163.650 C 232.396 164.502,231.770 165.227,231.816 165.261 C 231.862 165.295,233.101 164.035,234.569 162.461 C 236.037 160.887,237.195 159.600,237.142 159.600 C 237.090 159.600,236.514 160.163,235.863 160.850 M239.275 166.138 C 237.749 167.754,236.600 169.016,236.722 168.943 C 237.013 168.770,242.275 163.200,242.148 163.200 C 242.094 163.200,240.801 164.522,239.275 166.138 M230.109 166.967 L 228.719 168.500 229.974 167.300 C 231.000 166.319,231.824 165.338,231.557 165.417 C 231.526 165.426,230.874 166.123,230.109 166.967 M177.646 169.150 C 165.993 181.532,164.890 182.785,165.381 183.088 C 165.481 183.150,165.524 183.043,165.477 182.850 C 165.417 182.608,166.934 180.842,170.418 177.100 C 177.487 169.507,177.722 169.257,179.182 167.750 C 179.901 167.008,180.432 166.400,180.362 166.400 C 180.292 166.400,179.070 167.638,177.646 169.150 M228.367 168.778 C 228.306 168.939,225.275 172.220,222.017 175.649 C 221.312 176.392,220.785 177.000,220.847 177.000 C 220.909 177.000,222.731 175.110,224.895 172.800 C 227.060 170.490,228.742 168.600,228.632 168.600 C 228.523 168.600,228.403 168.680,228.367 168.778 M232.383 173.550 C 230.149 175.942,227.722 178.530,226.989 179.300 C 223.451 183.017,223.528 182.891,224.350 183.615 L 224.900 184.100 224.429 183.564 C 224.169 183.270,223.989 182.936,224.029 182.823 C 224.089 182.648,229.538 176.750,235.089 170.850 C 235.943 169.942,236.597 169.200,236.543 169.200 C 236.488 169.200,234.616 171.158,232.383 173.550 M237.700 174.500 C 237.370 174.647,236.740 175.147,236.300 175.610 C 235.688 176.254,235.626 176.372,236.036 176.112 C 236.331 175.925,236.704 175.571,236.865 175.325 C 237.026 175.079,237.527 174.756,237.979 174.607 C 239.502 174.104,239.858 174.339,245.338 179.451 C 259.139 192.328,271.072 203.445,276.293 208.289 C 279.487 211.253,282.752 214.329,283.550 215.125 C 284.348 215.920,285.000 216.503,285.000 216.421 C 285.000 216.220,282.793 214.105,276.103 207.895 C 273.025 205.038,268.390 200.717,265.803 198.293 C 261.058 193.847,245.083 178.951,242.143 176.230 C 239.996 174.244,239.077 173.886,237.700 174.500 M234.628 177.371 C 233.855 178.211,229.847 182.518,229.400 182.992 C 227.452 185.051,226.959 185.600,227.054 185.600 C 227.220 185.600,230.842 181.805,232.300 180.103 C 232.410 179.974,233.218 179.134,234.095 178.235 C 234.973 177.336,235.603 176.609,235.495 176.621 C 235.388 176.633,234.998 176.970,234.628 177.371 M219.083 178.850 C 217.045 180.968,212.459 185.864,212.369 186.018 C 212.249 186.223,216.213 182.127,218.564 179.617 C 219.810 178.288,220.793 177.200,220.750 177.200 C 220.706 177.200,219.956 177.942,219.083 178.850 M237.117 183.650 C 236.173 184.668,235.401 185.591,235.401 185.703 C 235.400 185.815,236.993 187.390,238.941 189.203 C 240.888 191.016,243.632 193.574,245.039 194.886 C 246.445 196.199,247.650 197.443,247.716 197.651 C 247.782 197.860,247.875 197.991,247.923 197.944 C 248.168 197.698,247.432 196.910,243.832 193.567 C 241.670 191.558,239.124 189.162,238.174 188.243 C 237.225 187.324,236.258 186.438,236.024 186.275 C 235.381 185.824,235.469 185.642,237.261 183.711 C 238.824 182.029,238.947 181.940,239.333 182.211 C 239.700 182.469,245.199 187.560,249.494 191.617 C 250.377 192.451,252.203 194.150,253.550 195.392 C 254.898 196.635,256.000 197.725,256.000 197.815 C 256.000 197.905,254.988 199.046,253.750 200.351 C 252.513 201.656,250.455 203.843,249.178 205.212 C 241.324 213.626,236.878 218.307,236.691 218.357 C 236.446 218.423,219.931 203.073,219.840 202.695 C 219.807 202.558,220.572 201.625,221.540 200.621 C 222.508 199.618,223.245 198.798,223.179 198.799 C 222.942 198.801,219.600 202.390,219.599 202.643 C 219.598 202.784,220.039 203.305,220.578 203.800 C 221.624 204.759,227.253 210.009,232.961 215.350 C 236.677 218.826,236.755 218.874,237.383 218.077 C 237.609 217.789,239.123 216.151,240.747 214.436 C 244.963 209.985,247.189 207.616,249.700 204.910 C 250.910 203.605,252.845 201.556,254.000 200.355 C 256.513 197.743,256.502 197.787,254.937 196.419 C 254.257 195.825,253.115 194.789,252.400 194.117 C 251.685 193.446,249.750 191.637,248.100 190.098 C 243.839 186.125,242.716 185.075,240.863 183.336 C 238.859 181.456,239.176 181.430,237.117 183.650 M167.390 185.000 C 168.226 185.825,170.077 187.572,171.505 188.883 C 172.932 190.194,174.843 191.992,175.750 192.879 C 176.658 193.766,177.400 194.436,177.400 194.368 C 177.400 194.233,175.219 192.115,172.700 189.803 C 171.820 188.996,170.515 187.784,169.800 187.111 C 166.981 184.456,165.717 183.349,167.390 185.000 M225.512 184.622 C 226.020 185.245,226.800 185.924,226.800 185.743 C 226.800 185.710,226.378 185.282,225.862 184.792 C 225.038 184.008,224.996 183.988,225.512 184.622 M210.894 187.650 L 209.700 188.900 210.950 187.706 C 212.111 186.597,212.292 186.400,212.144 186.400 C 212.113 186.400,211.550 186.963,210.894 187.650 M218.566 188.344 C 218.059 188.870,216.317 190.740,214.694 192.500 C 213.071 194.260,211.374 196.069,210.922 196.519 C 210.470 196.970,209.830 197.645,209.500 198.019 L 208.900 198.699 209.473 198.199 C 209.788 197.925,212.163 195.428,214.750 192.650 C 217.338 189.873,219.558 187.600,219.683 187.600 C 219.961 187.600,222.401 190.031,222.398 190.305 C 222.397 190.412,222.077 190.838,221.686 191.250 C 221.295 191.663,221.039 192.000,221.117 192.000 C 221.380 192.000,222.600 190.623,222.600 190.327 C 222.600 190.014,220.134 187.538,219.728 187.444 C 219.595 187.413,219.072 187.818,218.566 188.344 M131.000 188.768 C 130.615 188.846,131.875 188.874,133.800 188.831 C 135.757 188.787,138.226 188.856,139.400 188.988 C 142.942 189.386,143.935 189.427,142.000 189.095 C 140.140 188.776,132.133 188.538,131.000 188.768 M162.800 189.070 C 163.075 189.384,164.290 190.551,165.500 191.663 C 166.710 192.775,167.430 193.378,167.100 193.003 C 166.770 192.627,166.275 192.140,166.000 191.919 C 165.725 191.698,164.843 190.883,164.041 190.108 C 162.371 188.496,162.092 188.263,162.800 189.070 M127.500 189.200 C 126.337 189.408,127.570 189.416,128.900 189.209 C 129.849 189.061,129.859 189.054,129.100 189.055 C 128.660 189.056,127.940 189.121,127.500 189.200 M209.260 189.277 C 209.172 189.430,207.975 190.755,206.600 192.221 C 205.225 193.688,202.750 196.334,201.100 198.101 C 199.450 199.868,197.009 202.481,195.676 203.907 C 194.343 205.333,193.000 206.815,192.692 207.200 C 192.004 208.058,192.452 207.615,194.516 205.398 C 203.741 195.488,207.293 191.682,208.653 190.250 C 209.306 189.563,209.746 189.000,209.630 189.000 C 209.514 189.000,209.348 189.125,209.260 189.277 M124.400 189.784 C 123.544 189.953,122.733 190.468,122.314 191.107 C 121.786 191.913,121.960 191.849,122.866 190.904 C 123.502 190.239,123.886 189.999,124.316 189.997 C 124.637 189.995,125.035 189.907,125.200 189.800 C 125.533 189.585,125.422 189.582,124.400 189.784 M145.417 189.672 C 145.463 189.711,145.770 189.804,146.100 189.878 C 146.538 189.976,146.619 189.957,146.400 189.809 C 146.130 189.626,145.216 189.499,145.417 189.672 M229.220 192.133 C 227.097 194.388,227.173 194.153,228.250 195.106 C 228.718 195.519,229.775 196.492,230.600 197.268 C 233.779 200.256,234.547 200.935,233.006 199.394 C 232.178 198.566,230.609 197.061,229.520 196.050 L 227.540 194.212 229.289 192.306 C 231.378 190.031,230.934 190.074,232.886 191.951 C 235.539 194.502,242.718 201.178,243.301 201.636 C 243.909 202.115,245.554 202.357,246.104 202.050 C 246.358 201.908,246.185 201.879,245.477 201.944 C 243.977 202.084,243.886 202.016,237.352 195.921 C 233.979 192.774,231.179 190.200,231.130 190.200 C 231.081 190.200,230.221 191.070,229.220 192.133 M150.500 191.000 C 150.720 191.095,151.035 191.172,151.200 191.172 C 151.389 191.172,151.352 191.108,151.100 191.000 C 150.880 190.905,150.565 190.828,150.400 190.828 C 150.211 190.828,150.248 190.892,150.500 191.000 M121.714 192.514 C 121.641 192.807,121.619 193.086,121.666 193.133 C 121.713 193.180,121.812 192.979,121.886 192.686 C 121.959 192.393,121.981 192.114,121.934 192.067 C 121.887 192.020,121.788 192.221,121.714 192.514 M153.800 192.077 C 153.800 192.119,154.317 192.359,154.950 192.611 C 155.583 192.862,156.941 193.464,157.969 193.948 C 158.997 194.433,159.876 194.791,159.922 194.745 C 160.018 194.649,156.884 193.165,155.112 192.467 C 153.854 191.972,153.800 191.956,153.800 192.077 M219.793 193.336 C 219.192 193.960,218.996 194.233,219.357 193.943 C 219.978 193.443,221.122 192.200,220.961 192.200 C 220.920 192.200,220.394 192.711,219.793 193.336 M122.071 194.066 C 122.142 194.268,122.200 194.461,122.200 194.495 C 122.200 194.529,125.325 197.470,129.144 201.029 C 132.963 204.588,136.260 207.670,136.472 207.878 C 136.812 208.213,136.842 208.449,136.735 209.978 C 136.417 214.509,136.406 215.188,136.693 212.700 C 136.846 211.380,136.977 209.809,136.985 209.209 L 137.000 208.117 135.050 206.289 C 133.978 205.284,130.805 202.333,128.000 199.732 C 125.195 197.130,122.685 194.709,122.421 194.351 C 122.158 193.993,122.000 193.865,122.071 194.066 M166.023 195.435 C 164.378 197.178,164.292 197.209,163.068 196.492 C 162.590 196.212,162.200 196.028,162.200 196.083 C 162.200 196.252,163.917 197.200,164.222 197.200 C 164.516 197.200,167.751 194.069,167.589 193.941 C 167.540 193.902,166.835 194.575,166.023 195.435 M179.003 195.822 C 180.311 197.105,181.027 197.778,186.001 202.400 C 187.481 203.775,189.375 205.553,190.210 206.350 C 191.045 207.148,191.783 207.800,191.850 207.800 C 191.973 207.800,190.740 206.617,186.012 202.200 C 184.540 200.825,183.237 199.607,183.118 199.494 C 181.503 197.969,178.041 194.879,179.003 195.822 M132.091 195.015 C 131.924 195.284,132.320 195.708,135.300 198.448 L 137.700 200.654 134.942 197.977 C 133.425 196.505,132.188 195.223,132.192 195.128 C 132.196 195.033,134.199 194.989,136.641 195.030 C 139.084 195.071,140.727 195.041,140.291 194.964 C 138.974 194.730,132.241 194.772,132.091 195.015 M160.309 195.014 C 160.439 195.224,162.000 196.062,162.000 195.921 C 162.000 195.873,161.593 195.607,161.095 195.329 C 160.598 195.050,160.244 194.909,160.309 195.014 M217.967 195.179 C 217.930 195.278,216.730 196.591,215.300 198.096 C 212.200 201.360,211.483 202.679,212.197 203.800 C 212.329 204.007,212.352 203.874,212.272 203.372 C 212.082 202.191,212.523 201.305,214.168 199.566 C 215.010 198.674,216.263 197.351,216.950 196.624 C 217.638 195.898,218.200 195.235,218.200 195.152 C 218.200 194.943,218.048 194.961,217.967 195.179 M141.550 195.341 C 141.797 195.389,142.203 195.389,142.450 195.341 C 142.697 195.293,142.495 195.254,142.000 195.254 C 141.505 195.254,141.303 195.293,141.550 195.341 M148.200 196.710 C 148.695 196.866,149.190 196.988,149.300 196.982 C 149.650 196.960,148.117 196.431,147.700 196.429 C 147.480 196.428,147.705 196.554,148.200 196.710 M149.800 197.142 C 149.965 197.203,151.000 197.609,152.100 198.045 C 154.531 199.007,154.813 199.103,154.359 198.810 C 153.846 198.479,150.043 196.998,149.753 197.016 C 149.594 197.026,149.612 197.073,149.800 197.142 M248.057 199.100 C 248.059 199.650,248.098 199.851,248.144 199.547 C 248.189 199.243,248.188 198.793,248.141 198.547 C 248.093 198.301,248.056 198.550,248.057 199.100 M207.594 200.150 C 204.893 202.965,203.707 204.251,203.922 204.133 C 204.174 203.994,209.088 198.800,208.967 198.800 C 208.924 198.800,208.306 199.408,207.594 200.150 M156.390 199.899 C 157.320 200.387,158.110 200.756,158.147 200.719 C 158.232 200.635,155.100 198.998,154.869 199.006 C 154.776 199.009,155.461 199.411,156.390 199.899 M223.600 199.039 C 223.600 199.107,224.928 200.404,226.550 201.921 C 228.173 203.439,230.678 205.785,232.117 207.135 C 236.003 210.781,236.416 211.027,237.955 210.612 C 238.681 210.416,240.000 209.357,240.000 208.969 C 240.000 208.869,239.722 209.103,239.382 209.490 C 237.876 211.206,236.363 210.904,233.649 208.349 C 232.577 207.339,231.070 205.930,230.300 205.217 C 228.930 203.949,226.445 201.615,224.550 199.817 C 224.028 199.321,223.600 198.971,223.600 199.039 M138.108 200.976 C 138.323 201.238,140.975 203.756,144.000 206.572 C 147.025 209.387,149.950 212.138,150.500 212.684 C 151.050 213.230,151.905 214.032,152.400 214.466 C 153.320 215.272,160.734 222.153,162.900 224.211 C 163.560 224.838,165.675 226.816,167.600 228.608 C 169.525 230.399,171.640 232.368,172.300 232.982 C 180.390 240.515,182.074 242.056,180.407 240.400 C 179.267 239.267,174.719 234.989,171.911 232.410 C 169.877 230.541,161.731 222.942,159.900 221.205 C 159.130 220.475,154.495 216.158,149.600 211.611 C 144.705 207.065,140.028 202.705,139.208 201.922 C 138.387 201.140,137.892 200.714,138.108 200.976 M247.087 201.228 C 246.503 201.852,246.502 201.854,247.033 201.516 C 247.326 201.329,247.616 201.046,247.677 200.888 C 247.836 200.472,247.745 200.525,247.087 201.228 M158.412 200.869 C 158.508 200.973,160.362 202.194,161.150 202.672 C 161.873 203.110,161.253 202.559,160.350 201.961 C 159.275 201.248,158.211 200.649,158.412 200.869 M237.201 203.428 C 238.576 204.787,239.815 206.080,239.954 206.300 C 240.092 206.520,240.078 206.430,239.923 206.100 C 239.767 205.770,238.528 204.477,237.170 203.228 L 234.700 200.956 237.201 203.428 M260.035 202.556 C 258.699 203.944,257.245 205.569,257.112 205.822 C 257.032 205.975,257.256 205.785,257.610 205.400 C 257.965 205.015,258.831 204.093,259.535 203.350 C 260.240 202.608,260.761 202.000,260.693 202.000 C 260.625 202.000,260.329 202.250,260.035 202.556 M261.000 202.238 C 261.000 202.289,263.315 204.484,266.145 207.116 C 274.370 214.765,277.600 217.831,277.600 217.990 C 277.600 218.182,277.086 218.774,275.435 220.482 C 274.701 221.242,274.190 221.827,274.300 221.782 C 274.606 221.657,277.800 218.254,277.800 218.053 C 277.800 217.844,275.381 215.482,271.500 211.901 C 269.960 210.480,267.440 208.138,265.900 206.697 C 261.876 202.930,261.000 202.133,261.000 202.238 M161.600 202.863 C 161.600 202.912,161.930 203.205,162.334 203.513 C 162.738 203.821,163.005 203.970,162.928 203.846 C 162.770 203.590,161.600 202.724,161.600 202.863 M163.685 204.444 C 166.651 206.753,169.530 209.588,171.839 212.470 C 173.595 214.664,173.958 215.081,173.693 214.600 C 173.441 214.142,171.274 211.475,169.817 209.830 C 168.437 208.271,164.707 204.922,163.700 204.337 L 163.100 203.988 163.685 204.444 M212.771 204.750 C 213.022 205.107,213.269 205.400,213.321 205.400 C 213.494 205.400,213.025 204.670,212.669 204.384 C 212.418 204.182,212.448 204.289,212.771 204.750 M202.194 205.950 L 200.900 207.300 202.250 206.006 C 202.993 205.294,203.600 204.686,203.600 204.656 C 203.600 204.509,203.396 204.696,202.194 205.950 M213.600 205.510 C 213.600 205.622,215.936 207.857,218.600 210.292 C 219.425 211.046,220.814 212.346,221.686 213.181 C 222.558 214.017,223.143 214.518,222.986 214.296 C 222.727 213.930,221.560 212.810,218.409 209.906 C 217.440 209.012,214.970 206.701,213.969 205.750 C 213.766 205.558,213.600 205.449,213.600 205.510 M258.800 207.722 C 259.735 208.590,261.222 209.975,262.104 210.800 C 272.359 220.393,275.543 223.310,272.805 220.600 C 270.650 218.468,257.549 206.299,257.326 206.222 C 257.202 206.180,257.865 206.855,258.800 207.722 M240.250 207.500 C 240.253 207.940,240.294 208.096,240.341 207.848 C 240.389 207.599,240.387 207.239,240.337 207.048 C 240.287 206.856,240.248 207.060,240.250 207.500 M180.228 209.131 C 178.368 211.108,178.376 211.082,179.261 212.352 C 180.435 214.035,182.003 216.750,182.810 218.496 C 183.242 219.433,183.644 220.200,183.701 220.200 C 184.029 220.200,181.798 215.936,180.021 213.164 C 178.538 210.853,178.526 211.191,180.152 209.485 C 181.659 207.904,182.094 207.400,181.953 207.400 C 181.900 207.400,181.124 208.179,180.228 209.131 M182.510 207.567 C 182.752 207.779,188.270 212.898,189.200 213.773 C 190.102 214.622,191.167 215.326,191.800 215.493 C 192.075 215.565,191.827 215.371,191.249 215.062 C 190.295 214.552,187.921 212.471,184.074 208.771 C 183.290 208.017,182.574 207.400,182.484 207.400 C 182.394 207.400,182.406 207.475,182.510 207.567 M197.600 210.850 C 195.671 212.918,194.005 214.520,193.441 214.848 C 192.394 215.458,192.414 215.578,193.478 215.070 C 194.059 214.793,201.232 207.400,200.920 207.400 C 200.863 207.400,199.369 208.953,197.600 210.850 M250.811 212.325 C 248.856 214.390,248.851 214.291,251.000 216.289 L 252.700 217.869 251.050 216.206 C 249.478 214.622,249.180 214.159,249.576 213.915 C 249.837 213.754,252.659 210.600,252.543 210.600 C 252.488 210.600,251.709 211.376,250.811 212.325 M253.700 211.338 C 255.266 212.915,269.625 226.242,269.682 226.172 C 269.715 226.132,266.556 223.130,262.664 219.500 C 255.714 213.019,252.119 209.745,253.700 211.338 M142.632 214.750 C 142.664 215.488,142.665 215.490,142.745 214.850 C 142.840 214.079,142.916 214.061,143.587 214.650 L 144.100 215.100 143.615 214.550 C 142.926 213.769,142.593 213.836,142.632 214.750 M224.600 215.814 C 227.016 218.200,229.000 220.070,229.000 219.961 C 229.000 219.831,226.189 217.107,224.500 215.600 L 223.300 214.530 224.600 215.814 M145.794 216.600 C 146.624 217.425,148.202 218.935,149.301 219.956 C 150.401 220.977,153.745 224.082,156.734 226.856 C 162.352 232.070,162.571 232.320,161.650 232.456 C 161.131 232.533,161.134 232.536,161.700 232.519 C 162.794 232.485,162.368 231.894,159.000 228.777 C 157.185 227.098,153.630 223.791,151.100 221.428 C 144.874 215.615,144.026 214.843,145.794 216.600 M174.139 215.615 C 174.337 215.954,174.628 216.336,174.784 216.465 C 174.940 216.594,174.816 216.318,174.507 215.850 C 173.860 214.868,173.605 214.706,174.139 215.615 M142.462 217.100 C 142.463 217.760,142.500 218.006,142.545 217.646 C 142.589 217.287,142.589 216.747,142.543 216.446 C 142.497 216.146,142.461 216.440,142.462 217.100 M175.068 216.950 C 175.119 217.032,175.719 218.090,176.403 219.300 C 177.086 220.510,177.586 221.320,177.513 221.100 C 177.333 220.559,175.203 216.800,175.077 216.800 C 175.022 216.800,175.018 216.868,175.068 216.950 M136.331 217.350 C 136.280 217.433,136.197 218.400,136.145 219.500 C 136.051 221.504,136.091 221.355,136.373 218.650 C 136.521 217.225,136.516 217.051,136.331 217.350 M285.141 218.155 C 285.022 218.848,284.680 219.357,283.347 220.834 C 280.153 224.372,279.775 224.873,282.168 222.400 C 284.606 219.880,285.489 218.595,285.359 217.756 C 285.311 217.442,285.243 217.566,285.141 218.155 M252.800 217.827 C 252.800 217.941,259.308 224.098,263.861 228.291 L 266.223 230.466 267.527 229.183 C 268.244 228.477,269.114 227.540,269.459 227.100 C 269.805 226.660,269.225 227.200,268.170 228.299 L 266.252 230.298 263.878 228.099 C 259.823 224.344,255.152 219.979,253.950 218.820 C 253.318 218.211,252.800 217.764,252.800 217.827 M142.099 221.049 C 142.020 222.520,141.993 223.898,142.039 224.112 C 142.084 224.325,142.190 223.163,142.274 221.530 C 142.358 219.896,142.385 218.518,142.334 218.467 C 142.284 218.417,142.178 219.579,142.099 221.049 M243.050 220.787 C 242.143 221.767,241.400 222.620,241.400 222.684 C 241.400 222.747,242.129 222.011,243.021 221.049 C 243.912 220.087,244.725 219.269,244.828 219.231 C 245.023 219.158,245.793 219.820,248.609 222.484 C 249.549 223.373,250.901 224.640,251.612 225.300 C 252.323 225.960,254.163 227.670,255.701 229.100 C 257.239 230.530,259.230 232.375,260.126 233.200 C 262.130 235.044,262.126 234.793,260.182 236.871 C 258.285 238.898,258.422 238.863,257.114 237.650 C 254.876 235.575,250.470 231.465,246.022 227.305 C 243.448 224.898,241.378 223.022,241.422 223.136 C 241.465 223.250,242.310 224.091,243.300 225.005 C 244.290 225.919,247.035 228.475,249.400 230.684 C 256.557 237.372,258.132 238.800,258.348 238.800 C 258.639 238.800,262.000 235.234,262.000 234.926 C 262.000 234.786,261.752 234.461,261.450 234.203 C 260.864 233.703,260.070 232.969,255.192 228.411 C 245.550 219.401,245.109 218.999,244.878 219.003 C 244.780 219.005,243.957 219.808,243.050 220.787 M230.300 221.200 C 230.953 221.860,231.532 222.400,231.587 222.400 C 231.642 222.400,231.153 221.860,230.500 221.200 C 229.847 220.540,229.268 220.000,229.213 220.000 C 229.158 220.000,229.647 220.540,230.300 221.200 M184.320 221.868 C 184.495 222.380,184.710 222.845,184.799 222.900 C 184.981 223.012,184.364 221.298,184.144 221.077 C 184.066 220.999,184.145 221.355,184.320 221.868 M178.040 222.605 C 178.269 223.157,178.492 223.575,178.534 223.533 C 178.628 223.439,177.852 221.600,177.718 221.600 C 177.665 221.600,177.810 222.052,178.040 222.605 M231.920 222.635 C 231.986 222.781,233.115 223.890,234.430 225.100 C 235.745 226.310,238.099 228.491,239.661 229.947 C 241.222 231.403,242.565 232.596,242.646 232.597 C 242.726 232.599,242.366 232.220,241.846 231.757 C 241.325 231.293,240.270 230.317,239.500 229.587 C 234.965 225.292,231.816 222.403,231.920 222.635 M185.127 223.800 C 185.194 224.075,185.372 224.570,185.523 224.900 C 185.742 225.382,185.772 225.402,185.673 225.000 C 185.606 224.725,185.428 224.230,185.277 223.900 C 185.058 223.418,185.028 223.398,185.127 223.800 M178.700 224.150 C 178.778 224.343,178.978 224.887,179.144 225.361 C 179.309 225.834,179.483 226.184,179.530 226.137 C 179.636 226.031,178.810 223.800,178.664 223.800 C 178.605 223.800,178.621 223.957,178.700 224.150 M141.731 227.034 C 141.578 229.872,141.266 229.293,144.642 232.426 C 146.537 234.184,147.091 234.594,147.542 234.570 L 148.100 234.540 147.544 234.456 C 147.177 234.401,146.107 233.557,144.392 231.970 L 141.795 229.567 141.928 227.084 C 142.001 225.718,142.016 224.600,141.961 224.600 C 141.906 224.600,141.803 225.695,141.731 227.034 M277.464 227.182 C 276.321 228.383,275.198 229.620,274.970 229.932 C 274.741 230.245,274.985 230.050,275.511 229.500 C 276.038 228.950,277.231 227.713,278.163 226.750 C 279.095 225.788,279.787 225.000,279.700 225.000 C 279.613 225.000,278.607 225.982,277.464 227.182 M135.708 226.187 C 135.644 226.290,135.554 227.393,135.508 228.637 L 135.424 230.900 135.601 228.803 C 135.698 227.650,135.819 226.547,135.870 226.353 C 135.971 225.969,135.892 225.889,135.708 226.187 M186.020 226.469 C 185.987 226.746,186.630 228.837,186.720 228.747 C 186.766 228.701,186.631 228.132,186.422 227.482 C 186.212 226.832,186.031 226.376,186.020 226.469 M180.028 227.800 C 180.028 227.965,180.105 228.280,180.200 228.500 C 180.308 228.752,180.372 228.789,180.372 228.600 C 180.372 228.435,180.295 228.120,180.200 227.900 C 180.092 227.648,180.028 227.611,180.028 227.800 M180.534 229.600 C 180.724 230.651,181.018 231.261,180.871 230.300 C 180.804 229.860,180.672 229.365,180.578 229.200 C 180.474 229.018,180.457 229.175,180.534 229.600 M186.927 230.116 C 186.997 230.657,187.179 231.370,187.330 231.700 C 187.482 232.030,187.552 232.120,187.487 231.900 C 187.422 231.680,187.288 231.015,187.190 230.423 C 186.964 229.051,186.756 228.810,186.927 230.116 M272.475 232.550 C 271.499 233.623,270.651 234.545,270.591 234.600 C 270.409 234.765,264.239 241.364,262.200 243.574 C 261.155 244.707,260.030 245.760,259.700 245.915 C 259.195 246.151,259.179 246.178,259.600 246.083 C 260.242 245.938,262.802 243.291,273.927 231.277 C 274.272 230.905,274.485 230.600,274.402 230.600 C 274.318 230.600,273.451 231.478,272.475 232.550 M135.958 232.518 C 136.412 233.180,136.967 233.707,137.077 233.579 C 137.114 233.535,136.782 233.140,136.340 232.700 C 135.649 232.012,135.595 231.987,135.958 232.518 M159.000 232.800 C 158.469 232.912,158.421 232.951,158.800 232.962 C 159.075 232.970,159.660 232.902,160.100 232.811 C 160.767 232.674,160.800 232.647,160.300 232.649 C 159.970 232.651,159.385 232.719,159.000 232.800 M244.700 234.608 C 248.647 238.343,249.015 238.673,248.900 238.371 C 248.835 238.203,248.179 237.559,247.441 236.939 C 246.704 236.320,245.695 235.396,245.200 234.886 C 244.705 234.376,243.940 233.679,243.500 233.337 C 243.060 232.995,243.600 233.567,244.700 234.608 M157.152 233.141 C 157.401 233.189,157.761 233.187,157.952 233.137 C 158.144 233.087,157.940 233.048,157.500 233.050 C 157.060 233.053,156.904 233.094,157.152 233.141 M187.755 234.600 C 187.809 235.535,187.887 236.338,187.927 236.383 C 188.065 236.541,187.960 233.899,187.808 233.400 C 187.724 233.125,187.700 233.665,187.755 234.600 M181.541 234.100 C 181.604 234.650,181.689 235.138,181.728 235.183 C 181.878 235.357,181.764 233.882,181.599 233.500 C 181.487 233.243,181.466 233.457,181.541 234.100 M153.000 233.600 C 152.187 233.726,152.168 233.741,152.800 233.752 C 153.185 233.759,153.950 233.695,154.500 233.609 C 155.446 233.462,155.457 233.454,154.700 233.457 C 154.260 233.459,153.495 233.523,153.000 233.600 M137.600 234.201 C 137.875 234.440,139.172 235.641,140.482 236.868 C 141.791 238.096,143.051 239.227,143.282 239.382 C 143.512 239.536,143.151 239.131,142.480 238.482 C 140.234 236.307,138.305 234.565,137.700 234.163 L 137.100 233.765 137.600 234.201 M150.300 234.000 L 149.300 234.137 150.200 234.149 C 150.695 234.155,151.325 234.088,151.600 234.000 C 152.222 233.801,151.753 233.801,150.300 234.000 M130.274 235.488 C 129.930 235.638,129.575 235.882,129.486 236.030 C 129.358 236.243,129.384 236.251,129.612 236.069 C 129.770 235.942,130.215 235.702,130.600 235.536 C 130.985 235.369,131.210 235.229,131.100 235.224 C 130.990 235.219,130.618 235.338,130.274 235.488 M181.857 236.300 C 181.859 236.850,181.898 237.051,181.944 236.747 C 181.989 236.443,181.988 235.993,181.941 235.747 C 181.893 235.501,181.856 235.750,181.857 236.300 M133.700 236.418 C 134.250 236.899,135.493 238.059,136.463 238.996 C 137.432 239.933,138.252 240.700,138.283 240.700 C 138.441 240.700,133.446 235.932,133.101 235.753 C 132.880 235.638,133.150 235.938,133.700 236.418 M128.623 237.053 C 128.390 237.533,128.201 238.055,128.202 238.213 C 128.203 238.371,128.430 238.014,128.706 237.421 C 128.982 236.827,129.172 236.305,129.127 236.260 C 129.082 236.216,128.855 236.572,128.623 237.053 M182.073 239.300 C 182.074 240.400,182.107 240.824,182.148 240.243 C 182.188 239.662,182.188 238.762,182.147 238.243 C 182.106 237.724,182.073 238.200,182.073 239.300 M170.159 239.254 C 176.723 245.565,183.374 251.527,184.126 251.776 C 186.686 252.621,188.139 250.191,188.297 244.800 L 188.371 242.300 188.212 244.704 C 187.864 249.967,187.044 251.600,184.750 251.600 C 183.718 251.600,183.096 251.091,175.713 244.200 C 172.000 240.735,168.885 237.871,168.790 237.836 C 168.695 237.801,169.311 238.439,170.159 239.254 M164.700 238.195 C 164.458 238.296,164.775 238.319,165.500 238.253 C 166.160 238.194,166.738 238.112,166.783 238.072 C 166.954 237.924,165.085 238.034,164.700 238.195 M188.275 240.100 C 188.275 241.310,188.308 241.779,188.348 241.143 C 188.388 240.506,188.387 239.516,188.347 238.943 C 188.307 238.369,188.274 238.890,188.275 240.100 M161.300 238.628 C 159.415 238.866,159.164 239.019,160.900 238.871 C 162.617 238.725,164.220 238.442,163.300 238.447 C 162.970 238.449,162.070 238.530,161.300 238.628 M249.309 238.806 C 249.457 239.138,254.250 243.600,254.765 243.885 C 254.949 243.987,254.560 243.582,253.901 242.985 C 252.988 242.159,250.136 239.460,249.274 238.606 C 249.222 238.554,249.238 238.644,249.309 238.806 M157.700 239.149 C 157.040 239.189,156.435 239.287,156.355 239.366 C 156.275 239.445,156.883 239.455,157.706 239.388 C 158.528 239.320,159.261 239.206,159.334 239.133 C 159.407 239.060,159.339 239.017,159.183 239.038 C 159.028 239.059,158.360 239.109,157.700 239.149 M128.716 239.820 C 129.060 240.419,137.040 247.806,137.737 248.171 C 138.488 248.565,138.535 248.419,137.800 247.974 C 137.029 247.507,134.606 245.330,130.928 241.800 C 129.610 240.535,128.615 239.644,128.716 239.820 M152.900 239.805 C 152.536 239.901,152.851 239.920,153.700 239.854 C 154.470 239.794,155.138 239.713,155.183 239.673 C 155.337 239.539,153.508 239.645,152.900 239.805 M144.300 240.285 C 144.630 240.567,145.080 240.788,145.300 240.776 L 145.700 240.754 145.300 240.656 C 145.080 240.603,144.765 240.447,144.600 240.310 C 144.435 240.173,144.165 239.996,144.000 239.916 C 143.835 239.836,143.970 240.002,144.300 240.285 M151.250 240.138 C 151.442 240.188,151.758 240.188,151.950 240.138 C 152.143 240.088,151.985 240.046,151.600 240.046 C 151.215 240.046,151.058 240.088,151.250 240.138 M149.000 240.400 L 147.900 240.535 148.900 240.547 C 149.450 240.554,150.125 240.488,150.400 240.400 C 151.014 240.203,150.605 240.203,149.000 240.400 M139.009 241.316 C 139.279 241.654,139.889 242.239,140.364 242.616 C 140.839 242.992,141.352 243.525,141.506 243.800 C 141.659 244.075,141.788 244.193,141.792 244.061 C 141.802 243.771,141.275 243.194,139.709 241.777 C 139.023 241.157,138.726 240.961,139.009 241.316 M255.110 244.383 C 255.901 245.144,257.347 246.200,257.596 246.199 C 257.763 246.198,257.639 246.062,257.320 245.895 C 257.002 245.729,256.394 245.280,255.970 244.896 C 255.313 244.303,254.559 243.852,255.110 244.383 M141.434 246.781 C 140.865 247.688,140.346 248.036,139.300 248.214 L 138.500 248.350 139.281 248.375 C 140.195 248.404,141.220 247.729,141.715 246.771 C 142.166 245.899,141.983 245.906,141.434 246.781 M98.250 275.748 C 98.883 275.787,99.918 275.787,100.550 275.748 C 101.183 275.708,100.665 275.676,99.400 275.676 C 98.135 275.676,97.618 275.708,98.250 275.748 M108.471 302.700 C 108.470 303.690,108.504 304.120,108.546 303.656 C 108.588 303.192,108.589 302.382,108.547 301.856 C 108.506 301.330,108.472 301.710,108.471 302.700 " stroke="none" fill="#9abae1" fill-rule="evenodd"></path></g></svg>